<svg width="90" height="56" viewBox="0 0 90 56" fill="none" xmlns="http://www.w3.org/2000/svg">
<path d="M11.44 45.52C11.1467 45.6533 10.8533 45.6267 10.56 45.44L10.52 45.4C10.2533 45.2133 10.0667 45.0933 9.96 45.04C9.88 45.0133 9.68 44.96 9.36 44.88C9.17333 44.8267 9 44.7467 8.84 44.64C8.68 44.56 8.52 44.4667 8.36 44.36C8.30667 44.3067 8.2 44.2267 8.04 44.12C7.96 44.04 7.86667 43.96 7.76 43.88C7.68 43.8267 7.57333 43.7867 7.44 43.76C7.17333 43.6 6.92 43.4267 6.68 43.24C6.44 43.08 6.22667 42.88 6.04 42.64C5.85333 42.4 5.68 42.16 5.52 41.92C5.36 41.68 5.2 41.44 5.04 41.2C4.96 41.0667 4.89333 40.9333 4.84 40.8C4.78667 40.6933 4.73333 40.5733 4.68 40.44L4.4 39.56C4.37333 39.5067 4.36 39.4667 4.36 39.44C4.36 39.3867 4.34667 39.3467 4.32 39.32C4.29333 39.0533 4.25333 38.8 4.2 38.56C4.14667 38.32 4.09333 38.0667 4.04 37.8C4.01333 37.6667 3.98667 37.5333 3.96 37.4C3.96 37.2667 3.96 37.1467 3.96 37.04V35.48C3.96 35.2133 3.97333 34.96 4 34.72C4.05333 34.4533 4.09333 34.2 4.12 33.96C4.14667 33.8267 4.17333 33.6933 4.2 33.56C4.22667 33.4 4.25333 33.2533 4.28 33.12C4.28 33.0933 4.28 33.0667 4.28 33.04C4.30667 32.9867 4.32 32.9467 4.32 32.92C4.50667 32.3067 4.73333 31.72 5 31.16C5.26667 30.5733 5.57333 30.0133 5.92 29.48L6.88 28.04C7.09333 27.7733 7.2 27.48 7.2 27.16C7.2 27.0533 7.16 26.9867 7.08 26.96C6.97333 26.96 6.84 26.9333 6.68 26.88C6.52 26.8267 6.41333 26.88 6.36 27.04C6.33333 27.0667 6.30667 27.08 6.28 27.08L6.2 26.96C6.14667 26.8533 6.08 26.8 6 26.8C5.86667 26.8267 5.72 26.84 5.56 26.84C5.42667 26.84 5.29333 26.84 5.16 26.84C4.97333 26.84 4.78667 26.8533 4.6 26.88C4.44 26.88 4.26667 26.9067 4.08 26.96C4 26.9867 3.90667 27.08 3.8 27.24V27.36C3.77333 27.4933 3.74667 27.64 3.72 27.8C3.72 27.96 3.70667 28.12 3.68 28.28C3.65333 28.3867 3.62667 28.4933 3.6 28.6C3.57333 28.7067 3.53333 28.8133 3.48 28.92C3.45333 28.9467 3.42667 28.9867 3.4 29.04C3.4 29.0933 3.37333 29.1467 3.32 29.2C3.10667 29.44 2.88 29.5067 2.64 29.4C2.42667 29.32 2.26667 29.1867 2.16 29C2.10667 28.92 2.05333 28.7733 2 28.56L1.88 27.8C1.88 27.5067 1.81333 27.28 1.68 27.12C1.57333 26.9067 1.46667 26.68 1.36 26.44C1.25333 26.2 1.13333 25.9867 1 25.8C0.893333 25.64 0.826667 25.52 0.8 25.44C0.746667 25.3333 0.706667 25.2267 0.68 25.12C0.68 25.0133 0.666667 24.9067 0.64 24.8C0.56 24.4 0.613333 24.0533 0.8 23.76L0.92 23.48C0.946667 23.3467 1.04 23.2 1.2 23.04C1.33333 22.9067 1.46667 22.7733 1.6 22.64C1.76 22.48 1.93333 22.3467 2.12 22.24C2.22667 22.1867 2.29333 22.1333 2.32 22.08C2.66667 21.8133 3.01333 21.6667 3.36 21.64C3.44 21.64 3.49333 21.6267 3.52 21.6C3.73333 21.4933 3.94667 21.4 4.16 21.32C4.37333 21.24 4.57333 21.1333 4.76 21C5.02667 20.7867 5.29333 20.5733 5.56 20.36C5.82667 20.1467 6.08 19.92 6.32 19.68C6.42667 19.5733 6.52 19.48 6.6 19.4C6.68 19.2933 6.76 19.1867 6.84 19.08C6.89333 19.0533 6.94667 18.9867 7 18.88C7.08 18.7467 7.10667 18.6133 7.08 18.48C7.05333 18.32 7 18.1733 6.92 18.04C6.89333 17.9867 6.86667 17.9333 6.84 17.88C6.81333 17.8267 6.77333 17.7867 6.72 17.76C6.53333 17.4667 6.34667 17.2133 6.16 17L5.68 16.28C5.62667 16.2 5.56 16.12 5.48 16.04C5.42667 15.9333 5.36 15.8267 5.28 15.72C5.09333 15.4267 4.93333 15.08 4.8 14.68C4.69333 14.4133 4.58667 14.16 4.48 13.92C4.4 13.68 4.32 13.4267 4.24 13.16C4.13333 12.7867 4.02667 12.4133 3.92 12.04C3.81333 11.64 3.76 11.2267 3.76 10.8C3.73333 10.72 3.72 10.6 3.72 10.44C3.69333 10.3333 3.68 10.16 3.68 9.92C3.70667 9.81333 3.72 9.72 3.72 9.64C3.72 9.53333 3.73333 9.42667 3.76 9.32C3.76 9.24 3.76 9.16 3.76 9.08C3.76 8.97333 3.77333 8.88 3.8 8.8C3.88 8.50667 3.97333 8.22667 4.08 7.96C4.18667 7.69333 4.30667 7.42666 4.44 7.16C4.73333 6.6 5.04 6.06666 5.36 5.56C5.6 5.16 5.90667 4.81333 6.28 4.52C6.41333 4.38667 6.54667 4.26667 6.68 4.16C6.84 4.05333 7 3.94667 7.16 3.84L8.12 3.28C8.33333 3.14667 8.56 3.02667 8.8 2.92C9.04 2.81333 9.29333 2.73333 9.56 2.68C9.85333 2.6 10.12 2.52 10.36 2.44C10.6267 2.33333 10.8933 2.25333 11.16 2.2C11.4 2.14667 11.64 2.13333 11.88 2.16C12.1467 2.16 12.4 2.2 12.64 2.28C12.72 2.30667 12.8 2.33333 12.88 2.36C12.96 2.38666 13.04 2.41333 13.12 2.44C13.6 2.65333 13.9333 2.96 14.12 3.36C14.3333 3.68 14.4933 4 14.6 4.32C14.6533 4.4 14.68 4.48 14.68 4.56C14.68 4.61333 14.6933 4.66666 14.72 4.72C14.88 5.2 14.8133 5.64 14.52 6.04C14.44 6.14667 14.36 6.26667 14.28 6.4C14.2267 6.50667 14.1333 6.6 14 6.68C13.8667 6.81333 13.7067 6.92 13.52 7C13.3333 7.05333 13.1333 7.09333 12.92 7.12C12.5733 7.2 12.2 7.10666 11.8 6.84C11.7467 6.81333 11.6933 6.78667 11.64 6.76C11.6133 6.70666 11.5733 6.66666 11.52 6.64C11.2533 6.48 10.9733 6.46667 10.68 6.6C10.6 6.62666 10.52 6.66667 10.44 6.72C10.3867 6.74667 10.3333 6.78667 10.28 6.84C10.2267 6.86666 10.16 6.90666 10.08 6.96C10.0267 7.01333 9.96 7.05333 9.88 7.08C9.66667 7.16 9.49333 7.29333 9.36 7.48C9.22667 7.61333 9.09333 7.76 8.96 7.92C8.82667 8.05333 8.69333 8.21333 8.56 8.4L8.28 8.8C8.04 9.09333 7.92 9.37333 7.92 9.64C7.92 9.69333 7.90667 9.76 7.88 9.84C7.85333 9.89333 7.84 9.94666 7.84 10V10.6C7.89333 10.76 7.92 10.8933 7.92 11C8 11.5067 8.16 11.96 8.4 12.36L8.6 12.72C8.78667 13.0933 9.01333 13.48 9.28 13.88C9.36 13.96 9.44 14.04 9.52 14.12C9.6 14.1733 9.69333 14.2267 9.8 14.28C9.93333 14.3333 10.04 14.4133 10.12 14.52C10.2 14.6 10.28 14.6933 10.36 14.8C10.4933 14.9867 10.6133 15.1867 10.72 15.4C10.8267 15.6133 10.9333 15.8267 11.04 16.04C11.0933 16.2 11.12 16.3333 11.12 16.44C11.12 16.52 11.12 16.6 11.12 16.68C11.1467 16.76 11.1733 16.84 11.2 16.92L11.32 17.56C11.4 17.8267 11.4267 18.1067 11.4 18.4C11.4 18.6667 11.3733 18.9467 11.32 19.24C11.24 19.48 11.1467 19.72 11.04 19.96C10.9333 20.1733 10.8 20.3867 10.64 20.6C10.4267 20.8667 10.1867 21.12 9.92 21.36C9.68 21.6 9.44 21.84 9.2 22.08C9.09333 22.1867 8.97333 22.2933 8.84 22.4C8.73333 22.48 8.62667 22.5733 8.52 22.68L8.4 22.8V22.96C8.4 22.9867 8.42667 23.0267 8.48 23.08C8.58667 23.24 8.73333 23.36 8.92 23.44L9.52 23.76C9.70667 23.84 9.88 23.9467 10.04 24.08C10.2 24.1867 10.36 24.3067 10.52 24.44L10.64 24.56C10.7467 24.72 10.88 24.8533 11.04 24.96C11.36 25.28 11.5333 25.6133 11.56 25.96C11.56 26.12 11.5733 26.24 11.6 26.32C11.6267 26.4267 11.64 26.5333 11.64 26.64C11.64 26.72 11.64 26.8133 11.64 26.92C11.64 27.08 11.6 27.24 11.52 27.4L11.04 28.4C10.9867 28.5067 10.92 28.6267 10.84 28.76C10.7867 28.8933 10.72 29.0267 10.64 29.16C10.48 29.4 10.3067 29.6133 10.12 29.8C9.93333 30.0667 9.74667 30.32 9.56 30.56C9.37333 30.8 9.2 31.0533 9.04 31.32C8.69333 31.8267 8.4 32.3733 8.16 32.96C7.92 33.52 7.73333 34.1067 7.6 34.72C7.57333 34.9867 7.54667 35.2533 7.52 35.52C7.52 35.7867 7.53333 36.0667 7.56 36.36C7.61333 36.5467 7.64 36.72 7.64 36.88C7.66667 37.04 7.69333 37.2133 7.72 37.4C7.77333 37.64 7.85333 37.7867 7.96 37.84C8.09333 37.92 8.12 38.0267 8.04 38.16C8.01333 38.1867 8 38.2133 8 38.24C8.02667 38.24 8.04 38.24 8.04 38.24C8.17333 38.32 8.24 38.4133 8.24 38.52C8.26667 38.6 8.29333 38.7067 8.32 38.84C8.37333 38.9733 8.42667 39.0533 8.48 39.08C8.58667 39.16 8.68 39.2533 8.76 39.36C8.84 39.44 8.90667 39.52 8.96 39.6C9.01333 39.6533 9.05333 39.72 9.08 39.8C9.13333 39.8533 9.21333 39.8933 9.32 39.92C9.37333 39.9733 9.42667 40.0267 9.48 40.08C9.53333 40.1333 9.58667 40.1867 9.64 40.24C9.72 40.2933 9.8 40.3467 9.88 40.4C9.96 40.4533 10.0533 40.4933 10.16 40.52V40.44C10.16 40.3867 10.1867 40.36 10.24 40.36C10.2933 40.36 10.3333 40.3733 10.36 40.4C10.4933 40.4533 10.6133 40.5067 10.72 40.56C10.8267 40.6133 10.9467 40.6533 11.08 40.68C11.1333 40.68 11.2133 40.7067 11.32 40.76C11.4 40.8667 11.56 40.92 11.8 40.92L12.08 40.96C12.1867 40.9867 12.28 41 12.36 41C12.44 41.0267 12.5333 41.0267 12.64 41C12.6933 40.9733 12.7467 40.96 12.8 40.96C12.8533 40.9867 12.9067 41 12.96 41C13.0667 41.0267 13.1733 41.04 13.28 41.04C13.3867 41.04 13.4933 41.0267 13.6 41C13.7333 40.9733 13.8533 40.96 13.96 40.96C14.0667 40.96 14.1733 40.9467 14.28 40.92C14.3333 40.92 14.3867 40.9067 14.44 40.88C14.4933 40.88 14.5467 40.8667 14.6 40.84C14.7333 40.7867 14.88 40.7333 15.04 40.68C15.2 40.6267 15.36 40.5867 15.52 40.56L15.92 40.32C16 40.2667 16.08 40.2133 16.16 40.16C16.2667 40.1333 16.3467 40.0933 16.4 40.04C16.64 39.88 16.9067 39.8 17.2 39.8C17.3067 39.8 17.36 39.76 17.36 39.68C17.3867 39.4933 17.5067 39.4 17.72 39.4H18.04C18.1467 39.4267 18.2533 39.4533 18.36 39.48C18.4667 39.48 18.5733 39.4933 18.68 39.52C18.84 39.5733 18.9333 39.6667 18.96 39.8C19.0133 39.8267 19.0133 39.8667 18.96 39.92C18.96 39.9733 18.92 40 18.84 40L18.64 39.92C18.5867 39.8933 18.5333 39.8933 18.48 39.92C18.4267 39.92 18.3733 39.92 18.32 39.92L18.28 39.96C18.28 39.9867 18.28 40 18.28 40C18.3067 40.0267 18.32 40.04 18.32 40.04C18.5067 40.1467 18.6533 40.2667 18.76 40.4C18.8667 40.56 18.9733 40.7333 19.08 40.92C19.08 40.92 19.1067 40.9733 19.16 41.08C19.16 41.16 19.16 41.24 19.16 41.32C19.1867 41.4267 19.2133 41.52 19.24 41.6C19.24 41.6 19.24 41.64 19.24 41.72C19.1867 41.8 19.1467 41.88 19.12 41.96C19.12 42.0667 19.0933 42.16 19.04 42.24C18.9867 42.4267 18.8933 42.5333 18.76 42.56C18.68 42.5867 18.64 42.64 18.64 42.72C18.6133 42.8533 18.5333 42.96 18.4 43.04C18.2133 43.1467 18.0267 43.24 17.84 43.32C17.68 43.4267 17.4933 43.52 17.28 43.6L16.76 43.84C16.7333 43.8667 16.6667 43.9067 16.56 43.96C16.4267 43.9867 16.28 44.0267 16.12 44.08C15.9867 44.16 15.8533 44.2267 15.72 44.28C15.6667 44.3333 15.6133 44.36 15.56 44.36C15.4267 44.3867 15.28 44.4133 15.12 44.44C14.9867 44.4667 14.8533 44.4933 14.72 44.52C14.5333 44.5467 14.3467 44.5733 14.16 44.6C14 44.6267 13.8267 44.6667 13.64 44.72C13.4533 44.7467 13.28 44.7467 13.12 44.72C13.0133 44.6933 12.8933 44.72 12.76 44.8L12.04 45.2C11.9333 45.2533 11.8267 45.3067 11.72 45.36C11.64 45.4133 11.5467 45.4667 11.44 45.52ZM28.2241 55.72C27.8241 55.64 27.5974 55.4133 27.5441 55.04C27.5174 54.96 27.5041 54.8533 27.5041 54.72C27.5041 54.5333 27.4907 54.3467 27.4641 54.16C27.4641 54 27.4507 53.84 27.4241 53.68V53.16C27.3974 52.92 27.3841 52.6667 27.3841 52.4C27.4107 52.16 27.3974 51.92 27.3441 51.68C27.2907 51.6 27.2907 51.5333 27.3441 51.48C27.3707 51.24 27.3841 51 27.3841 50.76C27.3841 50.52 27.3974 50.2933 27.4241 50.08C27.5041 49.8133 27.5174 49.5467 27.4641 49.28C27.4374 49.1467 27.4241 49.0133 27.4241 48.88C27.4507 48.7733 27.4641 48.6667 27.4641 48.56V48.24C27.4374 47.84 27.4241 47.4267 27.4241 47C27.4241 46.6 27.4241 46.1867 27.4241 45.76V45.48C27.4774 45.2667 27.5041 45.0533 27.5041 44.84C27.5041 44.6267 27.5041 44.4133 27.5041 44.2C27.4774 44.0933 27.4641 43.9867 27.4641 43.88C27.4641 43.8 27.4641 43.7067 27.4641 43.6C27.4374 43.44 27.4241 43.28 27.4241 43.12C27.4241 42.9867 27.4241 42.84 27.4241 42.68L27.3041 42.04C27.1974 41.7467 27.0774 41.4667 26.9441 41.2C26.8107 40.9333 26.6774 40.6667 26.5441 40.4C26.4374 40.2133 26.3041 40.0533 26.1441 39.92C26.0107 39.76 25.8774 39.6267 25.7441 39.52C25.4774 39.3067 25.2107 39.08 24.9441 38.84C24.8107 38.7067 24.6774 38.5867 24.5441 38.48C24.4107 38.3467 24.2774 38.2267 24.1441 38.12C24.0107 37.9867 23.8641 37.84 23.7041 37.68C23.5707 37.52 23.4241 37.3733 23.2641 37.24C23.1307 37.1067 23.0107 36.96 22.9041 36.8C22.7974 36.6133 22.7041 36.4267 22.6241 36.24C22.5707 36.1067 22.5174 35.9733 22.4641 35.84C22.4107 35.7067 22.3574 35.5733 22.3041 35.44C22.2507 35.3067 22.1974 35.1733 22.1441 35.04C22.1174 34.9067 22.0774 34.7867 22.0241 34.68C21.9441 34.44 21.8641 34.2133 21.7841 34C21.7307 33.76 21.6774 33.52 21.6241 33.28C21.5441 32.9867 21.4774 32.6933 21.4241 32.4C21.3974 32.08 21.3707 31.76 21.3441 31.44C21.3441 31.3067 21.3307 31.1867 21.3041 31.08C21.3041 30.9733 21.3041 30.8667 21.3041 30.76C21.2774 30.2533 21.2774 29.76 21.3041 29.28C21.3307 29.2 21.3441 29.0667 21.3441 28.88C21.3441 28.4267 21.4107 27.9333 21.5441 27.4L21.6641 26.76C21.7441 26.4133 21.8374 26.1067 21.9441 25.84C22.0507 25.6533 22.1574 25.48 22.2641 25.32C22.3974 25.16 22.5574 25.0267 22.7441 24.92C22.9574 24.7867 23.1707 24.6933 23.3841 24.64C23.6241 24.56 23.8641 24.5067 24.1041 24.48C24.5841 24.48 24.9574 24.64 25.2241 24.96C25.3574 25.0933 25.4241 25.2267 25.4241 25.36C25.4507 25.4667 25.4907 25.5867 25.5441 25.72C25.5974 25.8267 25.6507 25.9333 25.7041 26.04C25.7041 26.1467 25.7441 26.2 25.8241 26.2L25.9041 26.08C25.9307 26.0267 25.9574 26 25.9841 26C26.0374 26 26.0774 26.0267 26.1041 26.08C26.2107 26.2667 26.2641 26.48 26.2641 26.72C26.2641 26.8 26.2507 26.8533 26.2241 26.88C26.2241 26.9333 26.2107 26.9867 26.1841 27.04C26.1574 27.0933 26.1441 27.1467 26.1441 27.2C26.1174 27.3333 26.0374 27.4667 25.9041 27.6C25.7974 27.68 25.7441 27.8 25.7441 27.96C25.7441 28.0667 25.7307 28.1333 25.7041 28.16C25.6241 28.2133 25.5841 28.2933 25.5841 28.4C25.5841 28.48 25.5707 28.5733 25.5441 28.68C25.4641 28.8133 25.4374 28.9733 25.4641 29.16C25.4641 29.2133 25.4507 29.28 25.4241 29.36C25.4241 29.4133 25.4241 29.48 25.4241 29.56C25.4241 29.72 25.4507 29.84 25.5041 29.92C25.5574 30.08 25.5841 30.2133 25.5841 30.32C25.5841 30.5867 25.6241 30.84 25.7041 31.08L25.8241 31.56C25.8241 31.6667 25.8507 31.76 25.9041 31.84C25.9574 31.92 26.0107 32 26.0641 32.08C26.2241 32.24 26.3841 32.3867 26.5441 32.52C26.7307 32.6533 26.9174 32.7867 27.1041 32.92C27.2907 33.0267 27.4774 33.1333 27.6641 33.24C27.8507 33.32 28.0374 33.4267 28.2241 33.56C28.3307 33.5867 28.4241 33.6267 28.5041 33.68C28.6107 33.7067 28.7174 33.7333 28.8241 33.76C29.2774 33.7867 29.6907 33.9733 30.0641 34.32C30.1174 34.3733 30.1707 34.4133 30.2241 34.44C30.2774 34.4933 30.3307 34.4933 30.3841 34.44L30.6241 34.32C30.7307 34.2133 30.8241 34.1067 30.9041 34C31.0107 33.8933 31.1041 33.7867 31.1841 33.68C31.2641 33.5467 31.3441 33.4133 31.4241 33.28C31.5041 33.1467 31.5841 33.0267 31.6641 32.92C31.6907 32.8667 31.7307 32.8133 31.7841 32.76C31.9174 32.3867 32.0374 32.0267 32.1441 31.68C32.2507 31.3067 32.3174 30.9333 32.3441 30.56C32.3707 30.24 32.3841 29.92 32.3841 29.6C32.3841 29.28 32.3841 28.9467 32.3841 28.6V28.56C32.4374 28.32 32.4507 28.0933 32.4241 27.88C32.3974 27.64 32.3707 27.4 32.3441 27.16C32.3441 27.0267 32.3441 26.8933 32.3441 26.76C32.3441 26.6 32.3307 26.4667 32.3041 26.36C32.2774 26.12 32.2507 25.88 32.2241 25.64C32.2241 25.4 32.2241 25.1733 32.2241 24.96L32.1041 24.04C32.0774 23.8533 32.0507 23.68 32.0241 23.52C31.9974 23.3333 31.9707 23.1467 31.9441 22.96C31.9174 22.8 31.8907 22.64 31.8641 22.48C31.8641 22.32 31.8374 22.16 31.7841 22C31.7574 21.7867 31.7307 21.5867 31.7041 21.4C31.6774 21.1867 31.6507 20.9733 31.6241 20.76C31.5974 20.5733 31.5707 20.4 31.5441 20.24C31.5441 20.0533 31.5174 19.8667 31.4641 19.68L31.4241 19.4C31.4241 19.1333 31.4107 18.88 31.3841 18.64C31.3574 18.4 31.3307 18.16 31.3041 17.92C31.3041 17.7867 31.2907 17.6933 31.2641 17.64C31.2641 17.5867 31.2507 17.5333 31.2241 17.48C31.2241 17.4267 31.2241 17.3733 31.2241 17.32C31.1974 16.8667 31.1707 16.4133 31.1441 15.96C31.1174 15.48 31.1174 15 31.1441 14.52C31.1441 14.3867 31.1441 14.2533 31.1441 14.12C31.1707 13.9867 31.1974 13.8533 31.2241 13.72C31.2774 13.6133 31.3041 13.5333 31.3041 13.48C31.3307 13.1867 31.4641 12.9067 31.7041 12.64C31.7574 12.56 31.8107 12.4933 31.8641 12.44C31.9441 12.36 32.0241 12.2933 32.1041 12.24C32.1841 12.1867 32.2641 12.1467 32.3441 12.12C32.4241 12.0667 32.5041 12.0133 32.5841 11.96H32.6641C32.7707 11.9867 32.8641 11.9867 32.9441 11.96C33.0507 11.9067 33.1574 11.88 33.2641 11.88C33.3974 11.8267 33.5174 11.84 33.6241 11.92C33.6774 11.92 33.7307 11.9467 33.7841 12C34.0507 12.08 34.2774 12.2 34.4641 12.36C34.5441 12.52 34.6241 12.68 34.7041 12.84C34.7841 12.9733 34.8374 13.1333 34.8641 13.32C34.9441 13.5867 35.0107 13.84 35.0641 14.08C35.1174 14.32 35.1574 14.5733 35.1841 14.84C35.2374 15.24 35.3041 15.64 35.3841 16.04C35.4641 16.44 35.5174 16.84 35.5441 17.24L35.6641 18.16C35.7174 18.64 35.7707 19.12 35.8241 19.6C35.9041 20.08 35.9841 20.5467 36.0641 21C36.0907 21.1067 36.1041 21.2 36.1041 21.28C36.1307 21.36 36.1441 21.4533 36.1441 21.56C36.1974 21.72 36.2374 21.88 36.2641 22.04C36.2907 22.2 36.2907 22.3733 36.2641 22.56C36.2641 22.6133 36.2774 22.6533 36.3041 22.68L36.4241 23.96C36.4507 24.2267 36.4774 24.5067 36.5041 24.8C36.5574 25.0933 36.5841 25.3867 36.5841 25.68C36.5841 25.7867 36.5974 25.8533 36.6241 25.88C36.6774 26.0933 36.6907 26.32 36.6641 26.56C36.6641 26.7733 36.6641 26.9867 36.6641 27.2V28.36C36.6907 28.6533 36.7041 28.9467 36.7041 29.24C36.7041 29.5333 36.7174 29.8267 36.7441 30.12V30.36C36.7174 30.6267 36.6907 30.9067 36.6641 31.2C36.6374 31.4933 36.5974 31.7867 36.5441 32.08C36.5174 32.2133 36.4907 32.36 36.4641 32.52C36.4374 32.6533 36.4107 32.8 36.3841 32.96C36.3041 33.3067 36.1841 33.6933 36.0241 34.12C35.9974 34.2533 35.9441 34.4 35.8641 34.56C35.8107 34.6933 35.7574 34.8267 35.7041 34.96C35.5974 35.28 35.4641 35.5867 35.3041 35.88L34.9441 36.52C34.8374 36.68 34.7307 36.84 34.6241 37C34.5441 37.16 34.4507 37.3067 34.3441 37.44C34.2374 37.5733 34.1307 37.7067 34.0241 37.84C33.9441 37.9467 33.8507 38.0667 33.7441 38.2C33.7174 38.2267 33.6907 38.2667 33.6641 38.32C33.6374 38.3467 33.5974 38.3867 33.5441 38.44C33.5174 38.4667 33.4774 38.5067 33.4241 38.56C33.3707 38.6133 33.3174 38.6667 33.2641 38.72C33.1574 38.8267 33.0374 38.9467 32.9041 39.08C32.7974 39.1867 32.6774 39.3067 32.5441 39.44C32.2241 39.76 31.9041 40.0267 31.5841 40.24L30.7441 40.84C30.5841 40.92 30.4507 41.0267 30.3441 41.16C30.2374 41.32 30.1441 41.4667 30.0641 41.6C29.9841 41.7067 29.9441 41.8267 29.9441 41.96C29.9441 42.3067 29.9174 42.64 29.8641 42.96C29.8374 43.28 29.8241 43.6133 29.8241 43.96V46.28C29.7707 46.5733 29.7441 46.88 29.7441 47.2C29.7441 47.52 29.7307 47.8267 29.7041 48.12V48.64C29.7041 48.6933 29.7041 48.76 29.7041 48.84C29.7041 48.92 29.6907 49 29.6641 49.08C29.6641 49.24 29.6641 49.4 29.6641 49.56C29.6641 49.72 29.6374 49.88 29.5841 50.04C29.5841 50.0933 29.5707 50.1467 29.5441 50.2C29.5441 50.28 29.5441 50.36 29.5441 50.44C29.5174 50.5467 29.5041 50.6533 29.5041 50.76C29.5041 50.8667 29.4907 50.9867 29.4641 51.12V51.32C29.4641 51.5333 29.4507 51.7467 29.4241 51.96C29.3974 52.2 29.3707 52.4267 29.3441 52.64C29.3174 52.8267 29.3041 53.0267 29.3041 53.24C29.3041 53.4533 29.2774 53.6667 29.2241 53.88C29.1974 54.0933 29.1574 54.3067 29.1041 54.52C29.0774 54.76 29.0241 54.9867 28.9441 55.2C28.9174 55.28 28.8774 55.36 28.8241 55.44C28.7707 55.52 28.7041 55.5867 28.6241 55.64C28.5441 55.6933 28.4107 55.72 28.2241 55.72ZM42.0828 47C41.8961 47.1067 41.6961 47.0933 41.4828 46.96C41.4561 46.9333 41.4295 46.8933 41.4028 46.84C41.3761 46.8133 41.3361 46.7867 41.2828 46.76C41.1495 46.6267 41.0828 46.4933 41.0828 46.36C41.0828 46.2267 41.0695 46.08 41.0428 45.92C41.0428 45.7867 41.0561 45.6533 41.0828 45.52C41.0828 45.2 41.0295 44.92 40.9228 44.68L40.8028 44.44C40.6695 44.2533 40.5761 44.0533 40.5228 43.84C40.4961 43.6267 40.4828 43.4 40.4828 43.16V43.08C40.4828 42.76 40.4828 42.5333 40.4828 42.4C40.4828 42.2933 40.5095 42.1867 40.5628 42.08C40.6161 41.9733 40.7095 41.8 40.8428 41.56C40.8961 41.4533 40.9495 41.3333 41.0028 41.2C41.0561 41.0933 41.1095 40.9867 41.1628 40.88C41.2161 40.7467 41.2695 40.6 41.3228 40.44C41.4028 40.3067 41.4561 40.1733 41.4828 40.04C41.5361 39.9867 41.5628 39.92 41.5628 39.84C41.5628 39.76 41.5761 39.6933 41.6028 39.64C41.6561 39.3467 41.6961 39.0667 41.7228 38.8C41.7495 38.5067 41.7628 38.2267 41.7628 37.96C41.7361 37.7467 41.7228 37.5467 41.7228 37.36C41.7495 37.1467 41.7495 36.9467 41.7228 36.76C41.7228 36.5733 41.7095 36.4 41.6828 36.24C41.6828 36.0533 41.6695 35.8667 41.6428 35.68C41.5895 35.4667 41.5495 35.24 41.5228 35C41.5228 34.76 41.5095 34.5333 41.4828 34.32C41.4828 34.16 41.5095 34.0133 41.5628 33.88C41.6161 33.7467 41.6561 33.6133 41.6828 33.48C41.6828 33.4533 41.6828 33.44 41.6828 33.44C41.7095 33.4133 41.7228 33.3867 41.7228 33.36C41.8561 33.2267 42.0028 33.0933 42.1628 32.96C42.3228 32.8267 42.4961 32.7333 42.6828 32.68C42.7361 32.68 42.7761 32.68 42.8028 32.68C42.8561 32.6533 42.8961 32.64 42.9228 32.64C43.0561 32.64 43.1761 32.64 43.2828 32.64C43.4161 32.64 43.5361 32.6533 43.6428 32.68C43.9095 32.7333 44.1361 32.8267 44.3228 32.96C44.5095 33.0933 44.6561 33.2933 44.7628 33.56C44.8961 33.8533 45.0028 34.1467 45.0828 34.44C45.1628 34.7333 45.2428 35.0267 45.3228 35.32C45.4828 35.96 45.5495 36.56 45.5228 37.12C45.5228 37.4133 45.5228 37.7067 45.5228 38C45.5228 38.2933 45.5095 38.5867 45.4828 38.88C45.4828 39.1733 45.4695 39.48 45.4428 39.8C45.4161 40.0933 45.3761 40.3867 45.3228 40.68L45.2828 40.92C45.2561 41 45.2295 41.08 45.2028 41.16C45.2028 41.24 45.1761 41.32 45.1228 41.4C45.0695 41.5333 45.0161 41.6667 44.9628 41.8C44.9361 41.96 44.8961 42.1067 44.8428 42.24C44.7628 42.48 44.6828 42.72 44.6028 42.96C44.5495 43.2 44.4828 43.44 44.4028 43.68C44.1895 44.24 43.8695 44.6933 43.4428 45.04C43.4161 45.0933 43.3495 45.1467 43.2428 45.2C43.0828 45.3067 42.9495 45.48 42.8428 45.72C42.7628 46.0133 42.6695 46.28 42.5628 46.52C42.4828 46.76 42.3228 46.92 42.0828 47ZM51.8828 43.6C51.8561 43.6 51.7628 43.5733 51.6028 43.52C51.5228 43.4933 51.4295 43.4 51.3228 43.24C51.2961 43.16 51.2695 43.08 51.2428 43C51.2161 42.92 51.2028 42.84 51.2028 42.76C51.1228 42.36 51.0828 41.96 51.0828 41.56V38.8C51.0828 38.56 51.0561 38.32 51.0028 38.08C50.9495 37.84 50.8961 37.6 50.8428 37.36C50.8428 37.3067 50.8161 37.2267 50.7628 37.12C50.7361 37.04 50.6961 36.96 50.6428 36.88C50.5895 36.7733 50.5361 36.68 50.4828 36.6C50.3761 36.4133 50.2961 36.2133 50.2428 36C50.1895 35.7867 50.1495 35.5867 50.1228 35.4C50.0961 35.1067 50.0961 34.8267 50.1228 34.56C50.1761 34.4 50.2161 34.2533 50.2428 34.12C50.2695 33.96 50.3095 33.8133 50.3628 33.68C50.4428 33.4667 50.5095 33.2533 50.5628 33.04C50.6161 32.8 50.6828 32.56 50.7628 32.32L51.3628 30.36C51.5495 29.8 51.7895 29.2267 52.0828 28.64C52.3761 28.08 52.6561 27.4533 52.9228 26.76C52.9761 26.6 53.0428 26.4267 53.1228 26.24C53.2295 25.9467 53.3361 25.6667 53.4428 25.4C53.5761 25.1067 53.6961 24.8267 53.8028 24.56L54.4028 22.88C54.4561 22.7733 54.4961 22.6667 54.5228 22.56C54.5495 22.4533 54.5761 22.3467 54.6028 22.24C54.8161 21.7067 55.0295 21.2 55.2428 20.72C55.4028 20.4 55.5095 20.0533 55.5628 19.68C55.6161 19.3067 55.6161 18.9333 55.5628 18.56C55.5361 18.4 55.5095 18.24 55.4828 18.08C55.4828 17.8933 55.4828 17.72 55.4828 17.56C55.4828 17.48 55.4561 17.4133 55.4028 17.36C55.3761 17.28 55.3761 17.2 55.4028 17.12C55.4295 17.0667 55.4561 17.0133 55.4828 16.96C55.5361 16.9067 55.5761 16.8533 55.6028 16.8C55.6828 16.5067 55.8028 16.2533 55.9628 16.04C56.1495 15.8 56.3495 15.5867 56.5628 15.4C56.6695 15.2933 56.8161 15.2133 57.0028 15.16C57.1095 15.1067 57.2028 15.0533 57.2828 15C57.3895 14.9467 57.4828 14.88 57.5628 14.8C57.6961 14.6933 57.8428 14.6267 58.0028 14.6C58.2161 14.5733 58.4428 14.4933 58.6828 14.36C58.8961 14.2267 59.1361 14.1867 59.4028 14.24H59.7628C59.9495 14.24 60.1495 14.3067 60.3628 14.44C60.4161 14.4667 60.4695 14.5067 60.5228 14.56C60.6028 14.5867 60.6828 14.6267 60.7628 14.68C60.9761 14.84 61.0828 15.04 61.0828 15.28C61.0828 15.4667 61.0961 15.64 61.1228 15.8C61.1761 15.96 61.2161 16.1333 61.2428 16.32C61.2961 16.48 61.2961 16.6533 61.2428 16.84C61.2161 16.8933 61.2028 16.96 61.2028 17.04C61.2028 17.0933 61.1895 17.1467 61.1628 17.2C61.1628 17.3067 61.1495 17.4133 61.1228 17.52C61.1228 17.6267 61.1095 17.7333 61.0828 17.84C61.0028 18.0267 61.0295 18.2133 61.1628 18.4C61.3761 18.7467 61.5628 19.1067 61.7228 19.48C61.9095 19.8533 62.0961 20.2267 62.2828 20.6L63.0028 21.88C63.2161 22.2267 63.4295 22.64 63.6428 23.12C63.6961 23.2 63.7361 23.28 63.7628 23.36C63.8161 23.44 63.8695 23.52 63.9228 23.6C64.0028 23.7333 64.0695 23.88 64.1228 24.04C64.2028 24.2 64.2828 24.36 64.3628 24.52C64.5761 24.92 64.7495 25.3333 64.8828 25.76C65.0428 26.16 65.2028 26.5867 65.3628 27.04C65.3628 27.0667 65.3628 27.0933 65.3628 27.12C65.3895 27.12 65.4028 27.1333 65.4028 27.16C65.4295 27.3467 65.5628 27.44 65.8028 27.44C65.8828 27.4133 65.9628 27.4 66.0428 27.4C66.1495 27.4 66.2428 27.4 66.3228 27.4C66.6161 27.4 66.8695 27.4533 67.0828 27.56C67.2161 27.5867 67.3495 27.6667 67.4828 27.8C67.6961 28.0133 67.8428 28.1867 67.9228 28.32C68.0028 28.4533 68.0561 28.6533 68.0828 28.92C68.1895 29.4267 68.0828 29.8667 67.7628 30.24L67.5228 30.44C67.4695 30.4933 67.4028 30.5467 67.3228 30.6C67.2428 30.6267 67.1761 30.6667 67.1228 30.72C66.9895 30.8267 66.9095 30.9067 66.8828 30.96C66.8828 31.0133 66.9228 31.1333 67.0028 31.32L67.6028 32.76C67.8428 33.2933 68.0828 33.8267 68.3228 34.36C68.5895 34.8933 68.8561 35.4267 69.1228 35.96C69.2295 36.1467 69.3095 36.3333 69.3628 36.52C69.4428 36.7067 69.4961 36.9067 69.5228 37.12C69.5495 37.28 69.5495 37.44 69.5228 37.6C69.5228 37.76 69.5095 37.92 69.4828 38.08C69.4828 38.1067 69.4561 38.2 69.4028 38.36C69.3228 38.4667 69.2428 38.5733 69.1628 38.68C69.1095 38.7867 69.0428 38.8933 68.9628 39C68.7495 39.2933 68.5761 39.6267 68.4428 40C68.3895 40.24 68.2161 40.4267 67.9228 40.56C67.7628 40.64 67.5895 40.64 67.4028 40.56C67.1628 40.48 67.0028 40.32 66.9228 40.08L66.8428 39.88C66.7628 39.6133 66.6428 39.36 66.4828 39.12C66.3761 38.9333 66.2695 38.7467 66.1628 38.56C66.0828 38.3467 65.9895 38.1467 65.8828 37.96C65.8561 37.9067 65.8428 37.8667 65.8428 37.84C65.8428 37.7867 65.8295 37.7467 65.8028 37.72C65.7761 37.56 65.7228 37.4133 65.6428 37.28C65.5895 37.12 65.5228 36.9733 65.4428 36.84C65.2828 36.44 65.1095 36.0533 64.9228 35.68C64.7628 35.28 64.5895 34.88 64.4028 34.48L63.8028 33.2C63.7761 33.12 63.7495 33.04 63.7228 32.96C63.6961 32.8533 63.6561 32.7467 63.6028 32.64L63.1228 31.56C63.1228 31.5067 63.0961 31.4267 63.0428 31.32C62.9095 31.1067 62.7361 30.9867 62.5228 30.96C62.3361 30.96 62.1628 30.9467 62.0028 30.92C61.8428 30.8933 61.6828 30.88 61.5228 30.88C61.0961 30.88 60.6695 30.92 60.2428 31C59.8161 31.08 59.4161 31.2267 59.0428 31.44C58.5361 31.7333 58.0161 31.92 57.4828 32C57.3761 32 57.2695 32.0133 57.1628 32.04C57.0561 32.0667 56.9495 32.1067 56.8428 32.16C56.6828 32.2667 56.5895 32.3867 56.5628 32.52C56.5095 32.68 56.4828 32.8 56.4828 32.88L56.3628 33.44C56.3361 33.6267 56.2295 33.8133 56.0428 34C55.9095 34.1333 55.7228 34.2 55.4828 34.2C55.1361 34.1467 54.9095 33.9733 54.8028 33.68C54.7761 33.6 54.7495 33.52 54.7228 33.44C54.6961 33.36 54.6695 33.2667 54.6428 33.16C54.5361 33.32 54.5228 33.4533 54.6028 33.56C54.6561 33.6667 54.6295 33.76 54.5228 33.84C54.4695 33.8933 54.4561 33.9333 54.4828 33.96C54.5361 34.0667 54.5228 34.16 54.4428 34.24C54.3628 34.32 54.3361 34.4133 54.3628 34.52C54.3895 34.5733 54.3895 34.64 54.3628 34.72C54.2295 34.9067 54.1361 35.1333 54.0828 35.4C54.1095 35.5067 54.0428 35.5867 53.8828 35.64C53.8295 35.64 53.8028 35.6667 53.8028 35.72C53.7495 35.8 53.6961 35.92 53.6428 36.08C53.6161 36.2133 53.5761 36.36 53.5228 36.52C53.4961 36.6533 53.4561 36.7867 53.4028 36.92L53.1628 37.92V38.08C53.1628 38.32 53.1361 38.56 53.0828 38.8C53.0561 39.0133 53.0428 39.24 53.0428 39.48L52.9228 40.8C52.8961 40.9867 52.8695 41.1733 52.8428 41.36C52.8428 41.5733 52.8428 41.7867 52.8428 42C52.8161 42.16 52.7895 42.3067 52.7628 42.44C52.7628 42.6 52.7361 42.76 52.6828 42.92C52.6295 43.16 52.5361 43.3333 52.4028 43.44C52.2961 43.6 52.1228 43.6533 51.8828 43.6ZM57.0828 27.4H57.1228C57.3895 27.3467 57.6428 27.3067 57.8828 27.28C58.1228 27.2533 58.3628 27.2267 58.6028 27.2C58.7628 27.1733 58.9228 27.16 59.0828 27.16C59.2428 27.1333 59.4028 27.12 59.5628 27.12H60.4028C60.4561 27.12 60.5095 27.12 60.5628 27.12C60.6161 27.0933 60.6561 27.08 60.6828 27.08C60.7361 27.08 60.7628 27.0267 60.7628 26.92C60.6828 26.8133 60.6161 26.7067 60.5628 26.6C60.5095 26.4933 60.4561 26.3867 60.4028 26.28C60.2428 25.9067 60.0295 25.5867 59.7628 25.32C59.7361 25.2667 59.7095 25.2267 59.6828 25.2C59.6561 25.1467 59.6295 25.0933 59.6028 25.04C59.5761 24.9867 59.5361 24.9333 59.4828 24.88C59.4561 24.8 59.4161 24.7333 59.3628 24.68C59.2295 24.5733 59.0961 24.6 58.9628 24.76L58.8428 25.08C58.8161 25.2933 58.7761 25.52 58.7228 25.76C58.6695 25.9733 58.6161 26.1867 58.5628 26.4C58.5628 26.4533 58.5361 26.5333 58.4828 26.64C58.4295 26.8 58.2961 26.92 58.0828 27C57.8961 27.08 57.6961 27.0533 57.4828 26.92L57.2428 26.76C57.2428 26.76 57.2161 26.76 57.1628 26.76C57.1095 26.8667 57.0828 26.9467 57.0828 27C57.0828 27.0533 57.0828 27.1067 57.0828 27.16C57.1095 27.2133 57.0961 27.2667 57.0428 27.32C56.9895 27.3733 57.0028 27.4 57.0828 27.4ZM79.6609 47.44C79.3409 47.5733 79.0743 47.5467 78.8609 47.36C78.7543 47.28 78.6609 47.1867 78.5809 47.08C78.5276 46.92 78.4743 46.7333 78.4209 46.52C78.4209 46.4133 78.3943 46.28 78.3409 46.12C78.3143 45.88 78.2076 45.6533 78.0209 45.44C77.9409 45.3333 77.8476 45.2267 77.7409 45.12C77.6609 45.0133 77.5676 44.9067 77.4609 44.8C77.3276 44.6667 77.2209 44.52 77.1409 44.36C77.0609 44.28 76.9809 44.2 76.9009 44.12C76.8476 44.04 76.7676 43.96 76.6609 43.88C76.5276 43.7733 76.3943 43.64 76.2609 43.48C76.1276 43.3467 75.9943 43.2267 75.8609 43.12C75.7009 42.96 75.5409 42.8 75.3809 42.64C75.2209 42.48 75.0476 42.3333 74.8609 42.2C74.7809 42.1467 74.7009 42.08 74.6209 42C74.5676 41.92 74.5143 41.84 74.4609 41.76C74.4343 41.7067 74.3943 41.6533 74.3409 41.6C74.1543 41.4133 74.0076 41.2133 73.9009 41C73.7943 40.7867 73.6876 40.5733 73.5809 40.36C73.5543 40.2267 73.5143 40.1067 73.4609 40C73.4076 39.8933 73.3543 39.7867 73.3009 39.68L73.1409 39.28C73.0343 38.9067 73.0343 38.5467 73.1409 38.2C73.2209 37.9067 73.2876 37.72 73.3409 37.64C73.3943 37.5333 73.5409 37.3867 73.7809 37.2C73.8609 37.1467 73.9276 37.0933 73.9809 37.04C74.0609 36.9867 74.1409 36.9467 74.2209 36.92L74.3409 36.84C74.4743 36.7333 74.6076 36.6667 74.7409 36.64C74.9009 36.6133 75.0609 36.6 75.2209 36.6H75.3809C75.4876 36.6 75.5143 36.5467 75.4609 36.44C75.4609 36.4133 75.4476 36.4 75.4209 36.4V36.28C75.4476 36.2533 75.4743 36.24 75.5009 36.24C75.6876 36.2667 75.8609 36.3067 76.0209 36.36C76.2076 36.3867 76.3809 36.4667 76.5409 36.6C76.7276 36.68 76.7943 36.8133 76.7409 37C76.7143 37.08 76.7276 37.2133 76.7809 37.4C76.8343 37.56 76.8876 37.72 76.9409 37.88C76.9943 38.0133 77.0209 38.1733 77.0209 38.36C77.0209 38.6 77.1009 38.84 77.2609 39.08C77.3143 39.1867 77.3809 39.28 77.4609 39.36C77.5409 39.44 77.6209 39.52 77.7009 39.6L78.1809 40.04C78.2343 40.0667 78.2876 40.0933 78.3409 40.12C78.4209 40.1733 78.5009 40.2267 78.5809 40.28C78.7676 40.36 78.9276 40.4667 79.0609 40.6C79.2743 40.7867 79.5276 40.88 79.8209 40.88C80.0343 40.88 80.2609 40.84 80.5009 40.76C80.5809 40.7067 80.6609 40.7067 80.7409 40.76C80.8743 40.8933 81.0343 40.9067 81.2209 40.8C81.3276 40.7733 81.4343 40.72 81.5409 40.64C81.7009 40.5867 81.7943 40.4933 81.8209 40.36C81.8743 40.28 81.9809 40.24 82.1409 40.24H82.2209C82.2743 40.2133 82.3143 40.1867 82.3409 40.16C82.3676 40.16 82.3943 40.1467 82.4209 40.12C82.5543 40.0133 82.6876 39.92 82.8209 39.84C82.9543 39.7333 83.0743 39.6133 83.1809 39.48C83.2076 39.4267 83.2743 39.3733 83.3809 39.32C83.5943 39.24 83.7943 39.1067 83.9809 38.92L84.3409 38.56C84.4476 38.4533 84.5143 38.3733 84.5409 38.32C84.6743 38.16 84.8076 38.0133 84.9409 37.88C85.0743 37.72 85.1943 37.56 85.3009 37.4C85.3809 37.2933 85.4476 37.1733 85.5009 37.04C85.5543 36.9067 85.6209 36.7867 85.7009 36.68C85.7276 36.6267 85.7543 36.5733 85.7809 36.52C85.8076 36.44 85.8343 36.3733 85.8609 36.32C86.1543 35.76 86.3143 35.1867 86.3409 34.6C86.3409 34.4667 86.3409 34.3333 86.3409 34.2C86.3409 34.04 86.3143 33.8933 86.2609 33.76C86.1809 33.52 86.0876 33.28 85.9809 33.04C85.9009 32.8 85.8209 32.56 85.7409 32.32C85.5276 31.8933 85.3143 31.52 85.1009 31.2C84.9676 30.96 84.8209 30.7333 84.6609 30.52C84.5009 30.28 84.3409 30.0533 84.1809 29.84L82.9809 28.2C82.8743 28.0667 82.7676 27.9333 82.6609 27.8C82.5809 27.64 82.4876 27.4933 82.3809 27.36C82.1943 27.04 82.0209 26.7067 81.8609 26.36C81.7276 26.0133 81.5943 25.6667 81.4609 25.32L81.2209 24.36C81.1943 24.28 81.1676 24.2 81.1409 24.12C81.1143 24.0133 81.0876 23.92 81.0609 23.84C81.0343 23.7067 80.9943 23.6 80.9409 23.52C80.9143 23.4133 80.8876 23.3067 80.8609 23.2C80.8343 23.0667 80.8076 22.9333 80.7809 22.8C80.7809 22.64 80.8076 22.4933 80.8609 22.36C80.8609 22.0133 80.9276 21.6133 81.0609 21.16V21C81.0609 20.8933 81.0343 20.8133 80.9809 20.76L80.6209 20.48C80.4609 20.3467 80.3009 20.2133 80.1409 20.08C80.0076 19.9467 79.8876 19.7867 79.7809 19.6C79.6209 19.36 79.5009 19.0933 79.4209 18.8C79.3676 18.6667 79.3276 18.5333 79.3009 18.4C79.3009 18.24 79.2743 18.0933 79.2209 17.96V17.76C79.2743 17.52 79.3009 17.2933 79.3009 17.08C79.3276 16.84 79.3809 16.6267 79.4609 16.44C79.5409 16.12 79.6343 15.8133 79.7409 15.52C79.8743 15.2 80.0076 14.8933 80.1409 14.6C80.3809 14.0667 80.6743 13.56 81.0209 13.08L81.5009 12.36C81.7676 11.9867 82.0076 11.6133 82.2209 11.24C82.4343 10.8667 82.5943 10.4667 82.7009 10.04C82.7276 9.90667 82.7543 9.8 82.7809 9.72C82.8076 9.61333 82.8343 9.50667 82.8609 9.4C82.8876 9.32 82.9009 9.24 82.9009 9.16C82.9276 9.08 82.9276 9 82.9009 8.92C82.8476 8.38667 82.7543 7.88 82.6209 7.4C82.4076 6.65333 81.9809 6.08 81.3409 5.68C81.2876 5.65333 81.2343 5.62667 81.1809 5.6C81.1543 5.57333 81.1143 5.54666 81.0609 5.52C80.9809 5.41333 80.8876 5.33333 80.7809 5.28C80.6743 5.22666 80.5543 5.18666 80.4209 5.16C80.2343 5.10667 80.0476 5.05333 79.8609 5C79.7009 4.94666 79.5143 4.89333 79.3009 4.84C79.1943 4.81333 79.0743 4.8 78.9409 4.8C78.8343 4.77333 78.7143 4.78666 78.5809 4.84L77.7009 5.08C77.5143 5.13333 77.3276 5.18667 77.1409 5.24C76.9543 5.29333 76.7543 5.34666 76.5409 5.4H76.4209C76.2343 5.34666 76.0343 5.28 75.8209 5.2C75.6343 5.12 75.4609 5.02667 75.3009 4.92C75.1676 4.84 75.0876 4.74666 75.0609 4.64C74.9543 4.48 74.8876 4.36 74.8609 4.28C74.8343 4.01333 74.7543 3.76 74.6209 3.52C74.5943 3.38666 74.6209 3.28 74.7009 3.2C74.8076 3.12 74.8743 3.01333 74.9009 2.88C74.9543 2.74667 74.9943 2.62667 75.0209 2.52C75.0476 2.46666 75.0476 2.42666 75.0209 2.4C75.0209 2.34667 75.0209 2.30667 75.0209 2.28C75.1809 2.22667 75.2876 2.16 75.3409 2.08C75.4476 1.97333 75.6076 1.88 75.8209 1.8C75.8743 1.77333 75.9409 1.74667 76.0209 1.72C76.1009 1.69333 76.1676 1.66666 76.2209 1.64C76.9676 1.29333 77.7143 1.06666 78.4609 0.959997C78.5143 0.959997 78.5676 0.959997 78.6209 0.959997C78.7009 0.933331 78.7676 0.919998 78.8209 0.919998C79.0876 0.946664 79.3543 0.973331 79.6209 0.999999C79.8876 0.999999 80.1543 1.04 80.4209 1.12C80.6609 1.17333 80.8876 1.24 81.1009 1.32C81.3409 1.37333 81.5676 1.44 81.7809 1.52C82.1809 1.70666 82.5676 1.92 82.9409 2.16C83.3143 2.37333 83.6609 2.62667 83.9809 2.92C84.1943 3.10667 84.4076 3.30667 84.6209 3.52C84.8343 3.73333 85.0343 3.97333 85.2209 4.24C85.5409 4.66667 85.8343 5.18667 86.1009 5.8C86.3676 6.49333 86.5143 7.14666 86.5409 7.76C86.5943 7.97333 86.6076 8.2 86.5809 8.44C86.5809 8.68 86.5809 8.92 86.5809 9.16C86.6076 9.37333 86.5943 9.6 86.5409 9.84C86.5143 10.0533 86.4743 10.2667 86.4209 10.48C86.4209 10.5333 86.4076 10.6 86.3809 10.68C86.3809 10.7333 86.3809 10.7867 86.3809 10.84C86.3543 10.9467 86.3276 11.0533 86.3009 11.16C86.2743 11.24 86.2343 11.32 86.1809 11.4C86.1276 11.5067 86.0743 11.64 86.0209 11.8C85.9143 12.0667 85.8076 12.3333 85.7009 12.6C85.5943 12.8667 85.4743 13.1333 85.3409 13.4C85.2609 13.5067 85.1809 13.6133 85.1009 13.72C85.0476 13.8267 84.9809 13.9333 84.9009 14.04L83.9409 15.36C83.9143 15.3867 83.8876 15.4267 83.8609 15.48C83.8343 15.5333 83.8076 15.5867 83.7809 15.64C83.6476 15.9067 83.5143 16.1733 83.3809 16.44C83.2476 16.68 83.1276 16.9467 83.0209 17.24C83.0209 17.2933 83.0076 17.3333 82.9809 17.36C82.9809 17.4933 83.0343 17.6 83.1409 17.68L83.3809 17.8C83.8876 18.0133 84.3809 18.12 84.8609 18.12C85.0209 18.12 85.1809 18.1333 85.3409 18.16C85.5009 18.16 85.6476 18.1733 85.7809 18.2C86.0476 18.2267 86.2743 18.32 86.4609 18.48C86.6476 18.6133 86.8343 18.76 87.0209 18.92C87.0743 19.0267 87.1276 19.1067 87.1809 19.16C87.2609 19.2133 87.3143 19.28 87.3409 19.36C87.3943 19.44 87.4209 19.5333 87.4209 19.64C87.4209 19.72 87.4209 19.8 87.4209 19.88C87.4743 20.1733 87.5009 20.3467 87.5009 20.4C87.5009 20.4267 87.4609 20.56 87.3809 20.8C87.2743 21.1467 87.0343 21.4533 86.6609 21.72C86.5009 21.8267 86.3276 21.9333 86.1409 22.04C85.9809 22.12 85.8076 22.1867 85.6209 22.24C85.3276 22.32 85.0743 22.4667 84.8609 22.68C84.7809 22.76 84.7543 22.8533 84.7809 22.96C84.8609 23.2267 84.9409 23.5067 85.0209 23.8C85.1009 24.0933 85.1943 24.3867 85.3009 24.68C85.4076 24.9733 85.5676 25.2667 85.7809 25.56C85.9409 25.7733 86.0876 26 86.2209 26.24C86.3809 26.48 86.5543 26.72 86.7409 26.96L87.5009 28.16C87.5543 28.2667 87.6076 28.3733 87.6609 28.48C87.7143 28.56 87.7676 28.6533 87.8209 28.76C87.9543 28.92 88.0609 29.0933 88.1409 29.28C88.2209 29.44 88.3009 29.6133 88.3809 29.8C88.4876 29.9867 88.5676 30.1733 88.6209 30.36C88.7009 30.5467 88.7809 30.7333 88.8609 30.92L89.4609 32.52C89.5943 32.8133 89.6876 33.1067 89.7409 33.4C89.8209 33.6933 89.8743 34 89.9009 34.32C89.9009 34.4267 89.9009 34.5333 89.9009 34.64C89.9276 34.7467 89.9543 34.8667 89.9809 35C89.9809 35.2133 89.9676 35.44 89.9409 35.68C89.9143 35.92 89.8743 36.1467 89.8209 36.36C89.7409 36.7333 89.6343 37.1067 89.5009 37.48C89.3943 37.8533 89.2343 38.2 89.0209 38.52C88.8343 38.8667 88.6343 39.2133 88.4209 39.56C88.2076 39.9067 87.9543 40.2267 87.6609 40.52C87.4743 40.76 87.2743 41 87.0609 41.24C86.8476 41.48 86.6343 41.7067 86.4209 41.92C86.2876 42.08 86.1276 42.2267 85.9409 42.36C85.7809 42.52 85.6076 42.6667 85.4209 42.8C85.2876 42.9067 85.1543 43 85.0209 43.08C84.8876 43.1867 84.7409 43.28 84.5809 43.36C84.3143 43.5467 84.0343 43.72 83.7409 43.88C83.4743 44.0667 83.2076 44.2667 82.9409 44.48C82.8876 44.5067 82.8209 44.5467 82.7409 44.6C82.6609 44.6533 82.5809 44.6933 82.5009 44.72C82.3143 44.8 82.1276 44.8933 81.9409 45C81.7543 45.1067 81.5676 45.2267 81.3809 45.36C81.3009 45.3867 81.2076 45.4267 81.1009 45.48C81.0209 45.5333 80.9276 45.5733 80.8209 45.6C80.7943 45.6 80.7676 45.6 80.7409 45.6C80.7409 45.6267 80.7276 45.64 80.7009 45.64C80.3809 45.7733 80.2076 45.9733 80.1809 46.24C80.1809 46.3467 80.1676 46.44 80.1409 46.52C80.1409 46.6 80.1276 46.6933 80.1009 46.8L79.9809 47.16C79.8743 47.32 79.7676 47.4133 79.6609 47.44Z" fill="#EAEAEA"/>
</svg>
