<svg width="462" height="475" viewBox="0 0 462 475" fill="none" xmlns="http://www.w3.org/2000/svg">
<path d="M398.599 170.583C403.998 171.308 405.648 174.62 404.514 182.168C403.332 190.042 398.461 196.3 395.049 203.182C393.058 207.078 390.818 210.842 388.344 214.45C386.557 217.126 387.12 218.202 390.08 219.271C400.806 223.151 411.448 227.265 422.102 231.341C424.249 232.121 426.334 233.064 428.338 234.163C430.922 235.643 433.587 237.389 428.133 239.108C434.915 242.93 435.71 251.385 430.603 256.137C428.606 257.997 427.125 257.089 425.445 256.631C409.209 252.208 392.986 247.738 376.775 243.221C369.78 241.272 369.483 242.206 366.732 248.864C364.008 255.457 359.751 261.52 355.556 267.379C347.577 278.524 340.413 290.053 335.705 302.997C334.809 305.464 333.61 308.553 330.63 308.134C328.256 307.799 324.805 306.935 325.293 302.886C325.334 302.353 325.172 301.824 324.839 301.405C317.37 292.928 321.027 284.347 324.717 275.889C330.239 263.236 337.17 251.295 343.937 239.294C346.056 235.531 345.937 234.26 341.536 232.931C328.26 228.924 314.907 225.168 301.652 221.08C292.151 218.152 288.668 210.089 283.88 203.208C282.545 201.288 283.89 196.73 285.211 193.955C286.525 191.193 289.922 192.219 292.446 192.721C314.497 197.115 336.572 201.451 358.026 208.322C361.264 209.36 362.686 208.949 364.57 205.756C371.857 193.403 379.64 181.342 387.352 169.244C389.028 166.614 390.72 163.74 394.199 163.047C396.845 162.519 399.492 162.265 401.32 164.929C403.553 168.182 399.067 168.147 398.599 170.583Z" fill="#4C5C69"/>
<path d="M111.031 133.148C111.318 130.475 107.36 128.354 110.568 126.062C114.488 123.261 118.113 125.368 121.091 127.793C126.122 131.89 130.845 136.376 135.574 140.833C141.585 146.502 147.44 152.338 153.43 158.031C158.15 162.517 158.154 162.44 161.966 156.839C170.107 144.875 179.152 133.662 189.794 123.807C194.45 119.494 199.398 115.549 204.926 112.388C208.117 110.511 211.587 109.15 215.204 108.357C225.295 106.262 231.212 111.109 232.515 121.318C233.155 126.327 233.191 130.79 231.077 135.422C229.563 138.74 227.161 139.516 224.278 138.387C220.377 136.862 217.547 138.357 214.593 140.559C203.762 148.633 195.36 159.05 186.714 169.237C184.788 171.505 183.154 174.045 181.075 176.153C178.018 179.251 179.052 181.469 181.917 183.918C188.988 189.962 195.681 196.473 203.863 201.098C204.729 201.588 205.853 201.993 205.616 203.381C204.495 205.023 202.655 203.333 201.343 204.031C201.483 205.839 203.011 205.916 203.828 206.717C205.087 207.952 210.109 208.206 205.088 211.214C206.901 213.678 206.512 215.905 204.762 218.332C203.14 220.583 201.517 222.1 198.65 220.689C187.702 215.304 178.079 207.873 168.39 200.612C165.49 198.438 164.309 198.973 162.762 201.588C157.561 210.381 151.952 219.014 153.663 230.034C153.979 232.07 152.422 233.637 151.796 235.443C150.845 238.186 148.414 237.524 146.438 237.736C144.404 237.956 144.04 236.2 143.268 234.803C135.14 220.098 136.861 205.465 143.153 190.68C146.41 183.008 145.955 183.163 139.123 177.765C132.392 172.447 126.169 166.483 119.656 160.878C114.1 156.096 111.023 149.967 109.62 142.9C109.28 141.186 109.225 139.304 107.856 138.092C106.215 136.641 106.197 135.059 107.052 133.358C108.045 131.383 109.754 133.166 111.031 133.148Z" fill="#4C5C69"/>
<path d="M92.6886 381.86C92.3718 381.726 92.0549 381.593 91.7389 381.458C91.4427 381.315 91.139 381.187 90.8292 381.076C90.5779 381 90.1065 380.899 90.0694 380.976C89.6997 381.72 89.4177 382.157 88.5182 381.419C88.1251 381.097 87.3044 381.219 86.6875 381.265C85.8573 381.327 85.8935 381.003 86.1323 380.4C86.207 380.213 86.0403 379.929 85.9838 379.689C85.8498 379.794 85.727 379.969 85.5797 379.994C84.9332 380.101 84.2085 380.388 83.6409 380.207C81.4992 379.524 79.4468 378.543 77.2877 377.935C74.0476 377.022 70.7079 376.458 67.4782 375.514C61.0154 373.626 54.1728 373.074 48.0426 370.043C45.5537 368.813 42.9694 367.675 40.7397 366.063C38.5867 364.507 36.7785 362.45 34.9201 360.515C31.924 357.398 29.0868 354.141 27.1163 350.242C24.4937 345.053 22.2829 339.736 21.9905 333.811C21.8726 331.42 21.5224 329.034 21.5178 326.645C21.5148 324.986 21.5999 323.194 22.2158 321.696C23.2668 319.136 23.4703 316.471 23.8391 313.82C25.0482 305.12 28.6244 297.482 34.0137 290.618C37.2261 286.503 40.7938 282.68 44.6759 279.19C49.8366 274.52 55.7745 270.788 62.221 268.163C65.6285 266.79 69.0679 265.526 72.8027 265.201C76.8421 264.85 80.847 264.048 84.8885 263.827C91.5317 263.464 98.208 263.469 104.663 265.4C109.348 266.802 113.935 268.526 118.586 270.046C121.264 270.922 123.988 271.653 126.678 272.495C132.343 274.265 138.239 274.285 144.059 274.591C156.455 275.243 168.744 276.589 180.902 279.104C188.25 280.625 195.666 281.872 202.938 283.695C212.749 286.155 221.805 290.311 229.164 297.496C233.054 301.294 235.995 305.815 238.543 310.608C240.848 314.943 243.454 319.126 245.585 323.541C247.19 326.87 249.464 329.68 251.607 332.599C253.11 334.645 254.838 336.531 256.53 338.431C260.855 343.289 266.389 346.634 271.565 350.437C275.488 353.319 279.252 356.417 283.065 359.447C283.287 359.625 283.3 360.06 283.423 360.37C283.452 360.458 283.515 360.532 283.597 360.575C284.716 360.911 285.345 361.688 285.88 362.711C286.236 363.389 287.137 363.762 287.577 364.417C289.59 367.41 291.772 370.33 293.416 373.521C294.806 376.347 295.89 379.313 296.651 382.369C297.466 385.463 298.032 388.617 298.345 391.801C298.627 395.032 298.726 398.277 298.642 401.519C298.564 407.895 297.263 414.198 294.811 420.084C292.276 426.075 288.749 431.596 284.378 436.413C282.659 438.341 280.807 440.159 278.917 441.923C277.92 442.854 276.695 443.536 275.614 444.383C274.868 444.967 274.227 445.685 273.479 446.264C269.215 449.567 264.38 451.768 259.332 453.558C258.429 453.878 257.556 454.287 256.665 454.637C256.39 454.746 256.104 454.825 255.812 454.872C253.231 455.274 250.646 455.649 248.07 456.078C247.679 456.143 247.332 456.594 246.958 456.605C245.755 456.641 244.536 456.479 243.461 457.219C243.103 456.325 242.479 457.188 242.452 457.169C241.125 456.285 240.151 457.709 238.985 457.667C238.523 457.65 238.015 457.821 237.611 457.673C237.166 457.511 236.245 458.373 236.274 457.12C235.822 457.238 235.372 457.362 234.919 457.471C234.379 457.64 233.807 457.68 233.249 457.586L233.981 457.331C225.292 456.827 216.657 456.139 208.487 452.751C208.448 452.91 208.409 453.07 208.37 453.229L221.893 456.939L221.902 456.99C220.023 456.625 218.128 456.331 216.268 455.883C207.989 453.886 200.556 450.053 193.745 445.05C188.895 441.486 184.282 437.598 179.548 433.875C177.11 431.958 174.612 430.117 172.193 428.176C171.13 427.324 170.256 426.237 169.191 425.388C167.752 424.239 166.201 423.23 164.718 422.133C163.476 421.215 162.065 420.415 161.128 419.244C160.8 418.885 160.397 418.601 159.947 418.414C159.699 418.261 159.648 417.804 159.472 417.507C159.387 417.364 159.133 417.152 159.087 417.18C158.302 417.681 157.925 417.036 157.389 416.67C155 415.036 152.599 413.419 150.16 411.863C147.112 409.919 144.081 407.947 140.943 406.161C137.418 404.155 133.814 402.281 130.186 400.464C126.643 398.69 123.039 397.038 119.44 395.378C116.491 394.017 113.496 392.754 110.551 391.386C109.36 390.833 108.268 390.075 107.089 389.493C106.599 389.251 105.892 389.375 105.476 389.07C104.411 388.286 102.955 388.263 102.044 387.114C101.725 386.712 100.752 386.894 100.168 386.62C99.5719 386.269 99.0112 385.861 98.4934 385.403C98.4098 385.341 98.291 385.254 98.2088 385.273C97.0412 385.532 96.4212 385.018 96.4537 384.174C95.7997 384.023 95.2349 383.917 94.6888 383.753C94.2063 383.536 93.7075 383.357 93.197 383.218C92.0644 383.072 92.366 382.496 92.7081 381.862C92.8265 382.178 92.8916 382.743 93.0541 382.77C93.6532 382.841 94.2583 382.845 94.8584 382.784C94.9314 382.78 95.0731 382.583 95.051 382.531C94.9957 382.394 94.8796 382.203 94.7599 382.181C94.0734 382.049 93.3795 381.962 92.6886 381.86ZM238.761 320.763L240.08 322.679L239.963 320.414C239.557 320.533 239.139 320.658 238.722 320.781C239.511 319.752 239.485 319.048 238.045 318.234C238.292 319.128 238.518 319.948 238.761 320.763ZM230.402 422.462C223.744 420.859 217.144 419.433 210.64 417.658C204.085 415.869 197.624 413.734 191.122 411.75L191.014 412.102C193.957 414.809 225.059 423.012 230.402 422.462ZM186.544 404.106C200.021 409.533 214.049 413.476 228.379 415.864L186.544 404.106ZM209.763 396.393C214.238 399.175 238.292 405.173 245.129 403.893C244.686 403.81 244.404 403.754 244.118 403.705C238.476 402.739 232.801 401.931 227.2 400.763C222.016 399.681 216.801 398.618 211.878 396.527C211.359 396.307 210.686 396.441 209.763 396.393ZM201.795 418.315L201.729 418.485C202.554 418.981 203.408 419.425 204.289 419.814C208.647 421.44 213.183 422.413 217.7 423.465C219.42 423.865 221.075 424.535 222.782 424.998C223.813 425.278 225.061 425.813 225.897 425.469C226.516 425.213 227.205 425.183 227.844 425.384C228.43 425.521 228.949 425.974 229.534 426.074C230.25 426.138 230.969 426.136 231.684 426.068C231.869 426.064 232.053 426.05 232.237 426.043C232.122 425.839 232.049 425.508 231.885 425.455C231.205 425.249 230.515 425.077 229.818 424.94C225.169 423.937 220.503 423.014 215.875 421.92C211.162 420.803 206.487 419.523 201.795 418.315ZM213.762 296.782L213.857 296.471C212.8 295.797 211.748 295.119 210.685 294.457C210.598 294.403 210.43 294.499 210.317 294.461C208.814 293.962 207.314 293.455 205.816 292.942C205.322 292.773 204.831 292.593 204.341 292.413C203.446 292.079 202.573 291.669 201.656 291.421C200.468 291.099 199.249 290.893 198.039 290.657C196.988 290.451 195.936 290.246 194.878 290.088C194.351 290.025 193.821 290.008 193.291 290.036C193.123 290.04 192.841 290.156 192.818 290.264C192.811 290.359 192.827 290.455 192.865 290.543C192.903 290.63 192.961 290.708 193.036 290.767C193.298 290.901 193.577 290.998 193.865 291.056C195.576 291.538 197.295 291.993 198.998 292.5C200.095 292.827 201.159 293.26 202.256 293.588C203.848 294.063 205.454 294.487 207.055 294.931C209.291 295.548 211.527 296.166 213.762 296.782ZM207.14 286.475C186.547 281.183 165.75 277.122 144.406 276.362C165.688 277.5 186.448 281.78 207.14 286.475ZM228.829 408.705L228.908 408.389C227.787 408.127 226.657 407.901 225.548 407.597C218.51 405.665 211.483 403.694 204.434 401.803C203.645 401.591 202.743 401.8 201.893 401.815L201.885 402.306C210.692 405.116 219.699 407.255 228.829 408.705ZM155.745 324.05C156.085 324.253 156.451 324.411 156.833 324.518C159.175 324.624 161.207 326.04 163.735 325.762C165.625 325.554 167.636 326.36 169.578 326.781C169.993 326.952 170.377 327.191 170.713 327.489C171.569 326.012 172.41 328.528 173.431 327.513C173.641 327.303 174.755 328.105 175.489 328.273C175.9 328.367 176.391 328.119 176.845 328.025C176.654 327.713 176.532 327.232 176.259 327.118C175.451 326.798 174.616 326.55 173.764 326.377C167.832 325.108 161.805 324.33 155.745 324.05ZM250.515 402.133C239.942 401.172 229.615 398.842 219.291 396.498C229.452 399.74 239.765 402.144 250.513 402.132L250.515 402.133ZM153.57 321.584C153.548 321.734 153.527 321.884 153.504 322.034C153.83 322.143 154.165 322.226 154.504 322.281C156.052 322.411 157.618 322.419 159.15 322.638C164.936 323.469 170.71 324.369 176.494 325.224C176.683 325.252 176.902 325.085 177.107 325.008C176.963 324.834 176.848 324.544 176.672 324.501C174.746 323.949 172.791 323.504 170.817 323.168C166.542 322.613 162.245 322.218 157.953 321.801C156.497 321.66 155.031 321.652 153.57 321.584ZM89.9979 280.379L112.406 283.585C105.181 280.753 97.647 280.149 89.9979 280.379ZM151.16 316.013C151.657 316.247 152.145 316.641 152.671 316.699C157.665 317.249 162.671 317.702 167.663 318.267C170 318.532 172.316 318.988 174.645 319.334C174.831 319.361 175.046 319.201 175.247 319.129C175.128 318.968 175.042 318.745 174.883 318.66C174.618 318.527 174.333 318.439 174.04 318.4C170.675 317.876 167.312 317.344 163.943 316.855C162.09 316.587 160.232 316.311 158.366 316.197C156.002 316.053 153.627 316.069 151.16 316.013ZM150.885 327.484L150.752 328.144C152.637 328.562 154.525 328.97 156.407 329.403C157.262 329.601 158.119 329.807 158.95 330.085C160.065 330.46 161.128 331.009 162.261 331.305C164.247 331.824 166.284 332.149 168.268 332.672C169.224 332.923 170.099 333.468 171.035 333.814C171.259 333.897 171.581 333.716 171.857 333.656C171.79 333.49 171.77 333.232 171.65 333.169C170.947 332.769 170.214 332.427 169.456 332.145C168.224 331.74 166.95 331.465 165.704 331.1C164.196 330.657 162.707 330.143 161.192 329.726C159.573 329.28 157.942 328.871 156.301 328.517C154.505 328.13 152.693 327.826 150.885 327.484ZM230.344 388.29C229.996 388.074 229.63 387.89 229.25 387.74C224.644 386.367 220.035 385.011 215.42 383.672C215.105 383.581 214.713 383.752 214.357 383.802C214.582 384.063 214.848 384.286 215.144 384.462C220.057 386.284 225.153 387.567 230.343 388.289L230.344 388.29ZM204.737 380.933C204.963 380.972 205.191 380.995 205.42 381.002C205.737 380.986 206.053 380.931 206.37 380.892C206.137 380.637 205.953 380.258 205.665 380.143C202.119 378.746 198.559 377.383 194.993 376.035C194.881 376.003 194.764 376 194.651 376.026C194.537 376.051 194.432 376.104 194.344 376.18C194.251 376.325 194.32 376.769 194.444 376.831C195.262 377.25 196.104 377.62 196.966 377.941C197.922 378.286 198.934 378.482 199.878 378.855C201.538 379.512 203.165 380.255 204.736 380.932L204.737 380.933ZM246.21 396.324L226.74 392.836C232.968 394.777 239.279 396.254 246.209 396.323L246.21 396.324ZM246.028 334.354L246.16 334.106C245.522 333.073 244.614 332.115 244.306 330.992C243.801 329.158 242.782 327.675 241.767 326.154C241.694 326.044 241.493 326.022 241.351 325.958C241.305 326.133 241.176 326.338 241.226 326.478C242.195 329.152 242.775 332.048 245.277 333.883C245.516 334.057 245.778 334.198 246.028 334.354ZM223.649 406.345L223.73 406.07L204.685 400.847L204.533 401.437L223.649 406.345ZM46.0426 290.638L46.36 291.018L57.319 281.429C56.2981 281.956 55.3493 282.614 54.3811 283.241C54.1155 283.413 53.7139 284.143 53.5512 283.148C53.4178 283.183 53.2473 283.178 53.1607 283.261C53.0588 283.386 52.9806 283.529 52.93 283.682C53.7169 284.137 52.9938 284.324 52.7607 284.537C50.5283 286.578 48.2889 288.611 46.0426 290.638ZM169.249 327.629L169.141 327.954C169.446 328.076 169.748 328.208 170.058 328.318C172.189 329.078 174.316 329.854 176.462 330.571C176.848 330.7 177.624 330.711 177.696 330.548C177.992 329.866 177.575 329.476 176.879 329.324C174.334 328.768 171.792 328.195 169.249 327.629ZM179.029 350.451L179.177 350.019L166.023 345.531C170.37 347.138 174.543 349.249 179.029 350.451ZM242.247 390.247C242.28 390.042 242.314 389.837 242.347 389.632L233.258 387.88L233.198 388.15L242.247 390.247ZM62.6803 306.529C61.7557 306.457 61.3873 308.279 60.2717 307.018C60.1651 307.14 60.0615 307.265 59.9512 307.382C59.9025 307.448 59.8386 307.5 59.7652 307.535C59.6223 307.581 59.3436 307.59 59.342 307.624C59.3322 307.815 59.3287 308.115 59.4376 308.178C59.7985 308.441 60.2181 308.613 60.6601 308.678C62.0965 308.677 62.3804 308.329 62.6803 306.529ZM65.3953 311.073C63.8331 310.381 58.919 310.959 58.3378 311.839L65.3953 311.073ZM215.241 454.143L215.173 454.303C218.772 454.893 222.37 455.495 225.973 456.055C226.389 456.053 226.801 455.988 227.197 455.862C226.858 455.851 226.518 455.841 226.18 455.829C226.138 455.822 226.096 455.813 226.056 455.802L215.241 454.143ZM186.978 287.96L186.836 288.484C188.257 289.02 189.675 289.571 191.107 290.076C191.263 290.131 191.507 289.931 191.711 289.849C191.625 289.653 191.58 289.324 191.441 289.282C189.963 288.814 188.469 288.393 186.978 287.96ZM188.097 403.334L188.058 403.461L199.062 406.819L199.101 406.692L188.097 403.334ZM174.364 353.707L174.261 353.967L179.946 355.701L180.015 355.431L174.364 353.707ZM100.109 381.163C100.034 380.284 99.1236 379.426 98.4861 379.512C98.2797 379.497 98.0763 379.453 97.8822 379.381C97.6087 379.332 97.3322 379.3 97.0573 379.261C97.1895 379.515 97.2577 379.894 97.4657 380C98.2922 380.421 99.1609 380.756 100.109 381.163ZM86.2545 296.01L86.1683 295.669L79.3749 296.016L79.3946 296.381L86.2545 296.01ZM163.208 309.948L163.225 309.707L158.405 309.246L158.376 309.659L163.208 309.948ZM185.074 287.952L185.173 287.646C184.237 287.442 183.303 287.221 182.361 287.055C182.222 287.031 182.037 287.291 181.874 287.42C182.019 287.523 182.155 287.7 182.309 287.716C183.228 287.815 184.152 287.878 185.074 287.952ZM199.611 363.572L199.649 363.207L195.867 362.447L195.793 362.913L199.611 363.572ZM210.064 397.565L209.939 397.959L213.306 399.206C213.353 399.064 213.4 398.923 213.447 398.783L210.064 397.565ZM183.023 395.17L183.084 394.8L178.556 393.918L178.491 394.231L183.023 395.17ZM172.648 285.274L172.697 285.723C173.334 285.78 173.972 285.859 174.611 285.876C174.743 285.88 174.917 285.67 174.997 285.518C175.024 285.469 174.824 285.197 174.728 285.197C174.034 285.198 173.342 285.243 172.648 285.274ZM72.6469 291.448L72.5939 291.038L69.8844 291.573L69.979 292.031L72.6469 291.448ZM141.545 342.663L141.495 342.928L144.62 343.533L144.673 343.257L141.545 342.663ZM217.596 425.311L217.604 425.23C216.788 424.891 215.972 424.551 215.154 424.216C215.024 424.158 214.887 424.121 214.747 424.104C214.702 424.1 214.647 424.219 214.595 424.281C214.715 424.371 214.844 424.447 214.98 424.508C215.851 424.784 216.724 425.045 217.596 425.311ZM172.477 317.278L172.41 317.575L174.986 318.146L175.065 317.782L172.477 317.278ZM174.856 334.775L174.949 334.379C174.346 334.195 173.745 334.004 173.137 333.838C173.088 333.823 172.945 333.968 172.926 334.054C172.906 334.162 172.949 334.378 173.002 334.39C173.62 334.537 174.24 334.653 174.859 334.776L174.856 334.775ZM51.0084 322.811L51.0563 323.187L52.6998 323.027L52.6417 322.581L51.0084 322.811Z" fill="#4C5C69"/>
</svg>
