<svg width="50" height="50" viewBox="0 0 50 50" fill="none" xmlns="http://www.w3.org/2000/svg">
<path d="M44.6375 23.1147L9.22079 6.44802C8.86415 6.28021 8.46723 6.21701 8.07612 6.26575C7.685 6.3145 7.31574 6.47319 7.01121 6.72341C6.70667 6.97362 6.47937 7.30509 6.35568 7.67932C6.23199 8.05355 6.21701 8.45519 6.31245 8.8376L8.83745 18.9397L25 25.0001L8.83745 31.0605L6.31245 41.1626C6.21521 41.5453 6.22895 41.9478 6.35206 42.3229C6.47517 42.6981 6.70257 43.0305 7.00765 43.2811C7.31274 43.5318 7.68289 43.6904 8.07481 43.7384C8.46674 43.7864 8.86423 43.7218 9.22079 43.5522L44.6375 26.8855C44.9954 26.7173 45.298 26.4506 45.51 26.1168C45.7219 25.7829 45.8345 25.3956 45.8345 25.0001C45.8345 24.6046 45.7219 24.2173 45.51 23.8834C45.298 23.5496 44.9954 23.2829 44.6375 23.1147Z" fill="#4C5C69"/>
</svg>
