<svg width="25" height="25" viewBox="0 0 25 25" fill="none" xmlns="http://www.w3.org/2000/svg">
<path d="M0 0H25V25H0V0ZM22.9514 19.0375C22.7694 17.8972 22.0264 16.9389 19.8236 16.0444C19.0569 15.6847 18.2056 15.4361 17.95 14.8583C17.8556 14.5139 17.8417 14.3278 17.9028 14.1236C18.0597 13.4514 18.8569 13.25 19.4819 13.4361C19.8889 13.5611 20.2639 13.8736 20.4986 14.375C21.575 13.6708 21.575 13.6708 22.3264 13.2028C22.0444 12.7667 21.9042 12.5764 21.7167 12.3889C21.0597 11.6556 20.1847 11.2806 18.7639 11.3125L18.0306 11.4056C17.3264 11.5778 16.6542 11.9542 16.2486 12.4528C15.0611 13.7972 15.4042 16.1403 16.8417 17.1111C18.2625 18.1736 20.3431 18.4069 20.6083 19.4069C20.8583 20.6264 19.7028 21.0167 18.5597 20.8764C17.7167 20.6875 17.2472 20.2667 16.7319 19.4847L14.8264 20.5792C15.0444 21.0778 15.2944 21.2972 15.6694 21.7347C17.4819 23.5625 22.0139 23.4694 22.8264 20.6875C22.8556 20.5944 23.0764 19.9542 22.9042 18.9694L22.9514 19.0375ZM13.5944 11.4903H11.2528C11.2528 13.5083 11.2431 15.5153 11.2431 17.5375C11.2431 18.8208 11.3083 19.9986 11.0986 20.3611C10.7556 21.0792 9.86806 20.9875 9.46667 20.8597C9.05417 20.6569 8.84444 20.375 8.60139 19.9694C8.53611 19.8611 8.4875 19.7667 8.46944 19.7667L6.56944 20.9389C6.8875 21.5958 7.35139 22.1597 7.95 22.5181C8.84028 23.05 10.0361 23.2222 11.2889 22.9417C12.1056 22.7056 12.8097 22.2208 13.175 21.4708C13.7083 20.5028 13.5944 19.3139 13.5903 17.9861C13.6014 15.8458 13.5903 13.7042 13.5903 11.5486L13.5944 11.4903Z" fill="#708AA0"/>
</svg>
