<svg width="50" height="50" viewBox="0 0 50 50" fill="none" xmlns="http://www.w3.org/2000/svg">
<path d="M25 27.1459C27.0538 27.1459 28.7188 25.4809 28.7188 23.4271C28.7188 21.3733 27.0538 19.7084 25 19.7084C22.9462 19.7084 21.2812 21.3733 21.2812 23.4271C21.2812 25.4809 22.9462 27.1459 25 27.1459Z" fill="#14A6C7"/>
<path d="M14.5875 30.8209L13.7646 30.6105C7.65212 29.0667 4.14587 26.4417 4.14587 23.4188C4.14587 20.3938 7.65421 17.7709 13.7646 16.2271L14.5875 16.0188L14.8188 16.8334C15.4366 18.9661 16.2281 21.0446 17.1855 23.048L17.3625 23.4188L17.1855 23.7896C16.2271 25.7959 15.4334 27.8751 14.8188 30.0084L14.5875 30.8209ZM13.3855 18.123C8.74171 19.4313 5.88962 21.4271 5.88962 23.4188C5.88962 25.4063 8.73962 27.4042 13.3855 28.7105C13.9542 26.9021 14.6417 25.1334 15.4375 23.4188C14.6359 21.7014 13.9504 19.9321 13.3855 18.123ZM35.4105 30.8209L35.1813 30.0042C34.5619 27.8711 33.7697 25.792 32.8125 23.7876L32.6355 23.4188L32.8125 23.0459C33.7709 21.0438 34.5605 18.9626 35.1813 16.8292L35.4105 16.0167L36.2334 16.2251C42.348 17.7688 45.8521 20.3917 45.8521 23.4188C45.8521 26.4438 42.3459 29.0667 36.2334 30.6105L35.4105 30.8209ZM34.5563 23.4188C35.3896 25.223 36.0834 26.998 36.6125 28.7105C41.2584 27.4042 44.1105 25.4063 44.1105 23.4188C44.1105 21.4271 41.2605 19.4334 36.6125 18.123C36.0444 19.9316 35.3575 21.7007 34.5563 23.4188Z" fill="#14A6C7"/>
<path d="M13.3729 18.1146L13.1437 17.3021C11.4229 11.2438 11.9437 6.9042 14.5749 5.3917C17.1479 3.90212 21.2874 5.66254 25.6229 10.1105L26.2145 10.7188L25.6229 11.325C24.083 12.9265 22.6756 14.6502 21.4145 16.4792L21.1791 16.8167L20.7708 16.85C18.5532 17.0242 16.3536 17.3788 14.1937 17.9105L13.3729 18.1146ZM16.6687 6.59587C16.202 6.59587 15.7895 6.69795 15.4416 6.89795C13.7166 7.8917 13.4124 11.3521 14.5999 16.023C16.4562 15.6125 18.3291 15.3188 20.2166 15.1542C21.3094 13.6043 22.5014 12.1269 23.7854 10.7313C21.0708 8.0917 18.5083 6.59587 16.6687 6.59587ZM33.3291 41.9792C30.8541 41.9792 27.6749 40.1125 24.3749 36.725L23.7854 36.1188L24.3749 35.5146C25.915 33.9106 27.3231 32.1849 28.5854 30.3542L28.8187 30.0209L29.2229 29.9813C31.4412 29.8102 33.6416 29.4569 35.802 28.925L36.6249 28.7167L36.8562 29.5313C38.5687 35.5855 38.0499 39.9313 35.4229 41.4438C34.785 41.8053 34.0622 41.9902 33.3291 41.9792ZM26.2145 36.1042C28.927 38.7438 31.4916 40.2417 33.3291 40.2417C33.7979 40.2417 34.2104 40.1375 34.5562 39.9396C36.2833 38.9438 36.5895 35.4771 35.3979 30.8063C33.5437 31.2188 31.6687 31.5146 29.777 31.6792C28.6889 33.2315 27.4988 34.7098 26.2145 36.1042Z" fill="#14A6C7"/>
<path d="M36.6251 18.1146L35.8021 17.9084C33.6419 17.3751 31.4414 17.0204 29.223 16.8479L28.8188 16.8125L28.5855 16.475C27.3249 14.645 25.9168 12.9212 24.3751 11.3209L23.7855 10.7146L24.3751 10.1104C28.7084 5.6646 32.8459 3.90418 35.423 5.39168C38.0521 6.90627 38.5751 11.2459 36.8563 17.3021L36.6251 18.1146ZM29.7771 15.1542C31.7646 15.3313 33.648 15.6292 35.398 16.0229C36.5876 11.3521 36.2834 7.89168 34.5563 6.89585C32.8396 5.9021 29.6084 7.42293 26.2146 10.7313C27.498 12.1271 28.6896 13.6021 29.7771 15.1542ZM16.6688 41.9792C15.9357 41.9897 15.2131 41.8049 14.5751 41.4438C11.9438 39.9313 11.423 35.5875 13.1417 29.5313L13.3667 28.7167L14.1896 28.925C16.198 29.4313 18.4105 29.7875 20.7688 29.9813L21.173 30.0209L21.4084 30.3542C22.6667 32.1834 24.0751 33.9104 25.6167 35.5146L26.2084 36.1188L25.6167 36.725C22.3188 40.1146 19.1396 41.9792 16.6688 41.9792ZM14.6001 30.8084C13.4126 35.4792 13.7167 38.9459 15.4417 39.9417C17.1605 40.9209 20.3813 39.4104 23.7855 36.1042C22.502 34.7081 21.31 33.2308 20.2167 31.6813C18.3273 31.5142 16.451 31.2226 14.6001 30.8084Z" fill="#14A6C7"/>
<path d="M25 31.9021C23.5688 31.9021 22.1 31.8417 20.625 31.7187L20.2167 31.6833L19.9812 31.3458C19.1495 30.1498 18.3669 28.9203 17.6354 27.6604C16.9094 26.3971 16.2345 25.1051 15.6125 23.7875L15.4375 23.4187L15.6125 23.0458C16.2354 21.7292 16.9083 20.4375 17.6354 19.175C18.3583 17.9333 19.1479 16.6917 19.9812 15.4875L20.2167 15.1542L20.625 15.1167C23.5352 14.8729 26.4606 14.8729 29.3708 15.1167L29.775 15.1562L30.0104 15.4896C31.6767 17.8828 33.1401 20.411 34.3854 23.0479L34.5583 23.4208L34.3854 23.7896C33.1435 26.4282 31.6799 28.9568 30.0104 31.3479L29.775 31.6854L29.3708 31.7208C27.9 31.8396 26.4292 31.9021 25 31.9021ZM21.1792 30.0187C23.7521 30.2125 26.2479 30.2125 28.8188 30.0187C30.2539 27.9171 31.5297 25.7109 32.6354 23.4187C31.5336 21.1245 30.2577 18.918 28.8188 16.8187C26.276 16.6229 23.7219 16.6229 21.1792 16.8187C19.739 18.9173 18.463 21.1238 17.3625 23.4187C18.4706 25.7097 19.7463 27.9157 21.1792 30.0187Z" fill="#14A6C7"/>
</svg>
