<svg width="30" height="26" viewBox="0 0 30 26" fill="none" xmlns="http://www.w3.org/2000/svg">
<path d="M14.5979 15.5913C16.0355 15.5913 17.201 14.4258 17.201 12.9881C17.201 11.5505 16.0355 10.385 14.5979 10.385C13.1602 10.385 11.9948 11.5505 11.9948 12.9881C11.9948 14.4258 13.1602 15.5913 14.5979 15.5913Z" fill="#708AA0"/>
<path d="M7.30917 18.1637L6.73312 18.0164C2.45437 16.9358 0 15.0983 0 12.9822C0 10.8647 2.45583 9.0287 6.73312 7.94807L7.30917 7.80224L7.47104 8.37245C7.9035 9.86534 8.45757 11.3203 9.12771 12.7227L9.25167 12.9822L9.12771 13.2418C8.45687 14.6462 7.90125 16.1016 7.47104 17.5949L7.30917 18.1637ZM6.46771 9.27516C3.21708 10.191 1.22062 11.5881 1.22062 12.9822C1.22062 14.3735 3.21563 15.772 6.46771 16.6864C6.86583 15.4206 7.34708 14.1824 7.90417 12.9822C7.34305 11.78 6.86315 10.5416 6.46771 9.27516ZM21.8852 18.1637L21.7248 17.592C21.2912 16.0988 20.7366 14.6435 20.0667 13.2404L19.9427 12.9822L20.0667 12.7212C20.7375 11.3197 21.2902 9.86286 21.7248 8.36953L21.8852 7.80078L22.4613 7.94661C26.7415 9.02724 29.1944 10.8633 29.1944 12.9822C29.1944 15.0997 26.74 16.9358 22.4613 18.0164L21.8852 18.1637ZM21.2873 12.9822C21.8706 14.2452 22.3563 15.4877 22.7267 16.6864C25.9788 15.772 27.9752 14.3735 27.9752 12.9822C27.9752 11.5881 25.9802 10.1924 22.7267 9.27516C22.3289 10.5412 21.8481 11.7796 21.2873 12.9822Z" fill="#708AA0"/>
<path d="M6.45896 9.26936L6.29855 8.70061C5.09396 4.45978 5.45855 1.42207 7.30042 0.363317C9.10146 -0.679392 11.9992 0.5529 15.034 3.66644L15.4481 4.09228L15.034 4.51665C13.9561 5.63765 12.9709 6.84425 12.0881 8.12457L11.9233 8.36082L11.6375 8.38415C10.0852 8.50607 8.54548 8.75432 7.03355 9.12644L6.45896 9.26936ZM8.76605 1.20623C8.43938 1.20623 8.15063 1.27769 7.90709 1.41769C6.69959 2.11332 6.48667 4.53561 7.31792 7.80519C8.6173 7.5179 9.92834 7.31228 11.2496 7.19707C12.0145 6.11215 12.849 5.07796 13.7477 4.10103C11.8475 2.25332 10.0538 1.20623 8.76605 1.20623ZM20.4283 25.9746C18.6958 25.9746 16.4704 24.6679 14.1604 22.2967L13.7477 21.8723L14.1604 21.4494C15.2385 20.3266 16.2241 19.1185 17.1077 17.8371L17.271 17.6037L17.554 17.576C19.1068 17.4563 20.6471 17.209 22.1594 16.8366L22.7354 16.6908L22.8973 17.261C24.096 21.4989 23.7329 24.541 21.894 25.5998C21.4475 25.8529 20.9415 25.9822 20.4283 25.9746ZM15.4481 21.8621C17.3469 23.7098 19.1421 24.7583 20.4283 24.7583C20.7565 24.7583 21.0452 24.6854 21.2873 24.5469C22.4963 23.8498 22.7106 21.4231 21.8765 18.1535C20.5785 18.4423 19.266 18.6494 17.9419 18.7646C17.1802 19.8512 16.3471 20.886 15.4481 21.8621Z" fill="#708AA0"/>
<path d="M22.7354 9.26931L22.1593 9.12493C20.6472 8.75165 19.1068 8.50338 17.5539 8.38264L17.271 8.35785L17.1077 8.1216C16.2253 6.84058 15.2396 5.63391 14.1604 4.51368L13.7477 4.08931L14.1604 3.66639C17.1937 0.554307 20.09 -0.677985 21.8939 0.363265C23.7343 1.42347 24.1004 4.46118 22.8973 8.70056L22.7354 9.26931ZM17.9418 7.19702C19.3331 7.32097 20.6514 7.52952 21.8764 7.80514C22.7091 4.53556 22.4962 2.11327 21.2873 1.41618C20.0856 0.720557 17.8237 1.78514 15.4481 4.10097C16.3464 5.07806 17.1806 6.11056 17.9418 7.19702ZM8.76602 25.9745C8.25287 25.9818 7.74702 25.8525 7.30039 25.5997C5.45851 24.541 5.09393 21.5003 6.29706 17.261L6.45456 16.6908L7.0306 16.8366C8.43643 17.191 9.98518 17.4403 11.636 17.576L11.9189 17.6037L12.0837 17.837C12.9646 19.1174 13.9504 20.3264 15.0296 21.4493L15.4437 21.8722L15.0296 22.2966C12.721 24.6693 10.4956 25.9745 8.76602 25.9745ZM7.31789 18.1549C6.48664 21.4245 6.69956 23.8512 7.90706 24.5483C9.11018 25.2337 11.3648 24.1764 13.7477 21.862C12.8493 20.8848 12.0148 19.8506 11.2496 18.766C9.92699 18.649 8.61358 18.4449 7.31789 18.1549Z" fill="#708AA0"/>
<path d="M14.5979 18.9205C13.5961 18.9205 12.5679 18.8782 11.5354 18.7922L11.2496 18.7674L11.0848 18.5311C10.5026 17.6939 9.95475 16.8332 9.44272 15.9513C8.93447 15.067 8.46207 14.1626 8.02667 13.2403L7.90417 12.9822L8.02667 12.7211C8.46272 11.7994 8.93376 10.8953 9.44272 10.0115C9.94876 9.14236 10.5015 8.27319 11.0848 7.43028L11.2496 7.19694L11.5354 7.17069C13.5726 7.00007 15.6204 7.00007 17.6575 7.17069L17.9404 7.1984L18.1052 7.43174C19.2716 9.107 20.296 10.8768 21.1677 12.7226L21.2888 12.9836L21.1677 13.2417C20.2984 15.0888 19.2739 16.8588 18.1052 18.5326L17.9404 18.7688L17.6575 18.7936C16.6279 18.8767 15.5983 18.9205 14.5979 18.9205ZM11.9233 17.6022C13.7244 17.7378 15.4715 17.7378 17.2711 17.6022C18.2757 16.131 19.1687 14.5867 19.9427 12.9822C19.1715 11.3762 18.2783 9.83166 17.2711 8.36215C15.4911 8.22507 13.7033 8.22507 11.9233 8.36215C10.9153 9.83113 10.022 11.3757 9.25167 12.9822C10.0273 14.5858 10.9203 16.13 11.9233 17.6022Z" fill="#708AA0"/>
</svg>
