<svg width="30" height="30" viewBox="0 0 30 30" fill="none" xmlns="http://www.w3.org/2000/svg">
<path d="M15 2.5C21.9025 2.5 27.5 8.0975 27.5 15C27.5 21.9025 21.9025 27.5 15 27.5C8.0975 27.5 2.5 21.9025 2.5 15C2.5 8.0975 8.0975 2.5 15 2.5ZM12.5162 19.165C12.6987 19.8362 12.6787 20.4638 12.49 21.0313L12.4225 21.2188C12.2646 21.5967 12.0416 21.9441 11.7638 22.245C11.0363 23.0362 10.0213 23.335 9.58625 23.0837C9.1175 22.81 9.35125 21.6938 10.195 20.8025C11.1025 19.8463 12.4025 19.23 12.4025 19.23V19.2275L12.5162 19.165ZM22.8387 7.85125C22.2737 5.63 18.5925 4.89875 15.1075 6.1375C13.0375 6.87375 10.7912 8.03125 9.17875 9.54125C7.25875 11.3337 6.95375 12.8962 7.07875 13.5487C7.5225 15.8525 10.68 17.3588 11.9788 18.4763V18.4825C11.595 18.6688 8.79375 20.075 8.13875 21.53C7.435 23.0613 8.24875 24.1563 8.78 24.295C10.4213 24.7488 12.1075 23.92 13.015 22.5775C13.8887 21.2638 13.8125 19.5775 13.4362 18.7487C13.9525 18.6087 14.56 18.5463 15.3412 18.6413C17.53 18.89 17.9675 20.2663 17.8712 20.8288C17.7787 21.39 17.3263 21.7175 17.17 21.8112C17.0125 21.9062 16.9663 21.9375 16.9813 22C16.9975 22.0925 17.0763 22.0925 17.2 22.0788C17.3725 22.0475 18.3425 21.61 18.3888 20.545C18.435 19.2025 17.1537 17.7037 14.8725 17.7325C13.935 17.75 13.34 17.8275 12.9188 18C12.8903 17.9559 12.8528 17.9184 12.8087 17.89C11.4025 16.3738 8.7925 15.3113 8.9025 13.2963C8.93375 12.5613 9.19875 10.625 13.9025 8.28125C17.7625 6.35875 20.8413 6.89125 21.3738 8.0625C22.1363 9.7325 19.7312 12.8438 15.7162 13.2963C14.185 13.4688 13.3887 12.875 13.1837 12.655C12.9662 12.42 12.9363 12.405 12.8575 12.4538C12.7313 12.5163 12.81 12.7188 12.8575 12.845C12.9825 13.1563 13.4663 13.705 14.3113 13.985C15.045 14.22 16.8413 14.3587 18.9988 13.5162C21.42 12.58 23.31 9.96875 22.7638 7.78125L22.8387 7.85125Z" fill="#708AA0"/>
</svg>
