<svg width="35" height="35" viewBox="0 0 35 35" fill="none" xmlns="http://www.w3.org/2000/svg">
<path d="M26.9792 13.8689C25.8855 13.4922 24.9201 12.8149 24.1938 11.9147C23.3932 10.9117 22.3739 10.1051 21.2137 9.55661C20.0535 9.00811 18.7832 8.73225 17.5 8.75012C15.7739 8.62787 14.065 9.16027 12.7138 10.2413C11.3625 11.3223 10.468 12.8726 10.2084 14.5835C10.7198 13.7278 11.4894 13.0564 12.4066 12.6659C13.3238 12.2754 14.3413 12.186 15.3125 12.4105C16.4044 12.7982 17.3682 13.4794 18.0979 14.3793C18.9029 15.3743 19.9242 16.1725 21.0841 16.7133C22.2441 17.2541 23.5121 17.5232 24.7917 17.5001C26.5178 17.6224 28.2267 17.09 29.5779 16.009C30.9292 14.928 31.8237 13.3777 32.0834 11.6668C31.5812 12.5327 30.814 13.2142 29.8949 13.6107C28.9759 14.0073 27.9536 14.0978 26.9792 13.8689ZM8.02085 21.1314C9.11453 21.508 10.0799 22.1853 10.8063 23.0855C11.6068 24.0885 12.6262 24.8951 13.7864 25.4436C14.9466 25.9921 16.2168 26.268 17.5 26.2501C19.2262 26.3724 20.935 25.84 22.2863 24.759C23.6375 23.678 24.532 22.1277 24.7917 20.4168C24.2803 21.2725 23.5106 21.9439 22.5934 22.3343C21.6762 22.7248 20.6588 22.8142 19.6875 22.5897C18.5957 22.2021 17.6319 21.5208 16.9021 20.621C16.095 19.6284 15.0733 18.8319 13.9138 18.2914C12.7544 17.7508 11.4875 17.4803 10.2084 17.5001C8.48222 17.3779 6.77337 17.9103 5.42211 18.9913C4.07085 20.0723 3.17633 21.6226 2.91669 23.3335C3.4188 22.4675 4.18603 21.786 5.10511 21.3895C6.02419 20.993 7.04641 20.9025 8.02085 21.1314Z" fill="#708AA0"/>
</svg>
