<svg width="453" height="488" viewBox="0 0 453 488" fill="none" xmlns="http://www.w3.org/2000/svg">
<path d="M389.599 170.583C394.998 171.308 396.648 174.62 395.514 182.168C394.332 190.042 389.461 196.3 386.049 203.183C384.058 207.078 381.818 210.842 379.344 214.45C377.557 217.126 378.12 218.202 381.08 219.271C391.806 223.151 402.448 227.265 413.102 231.341C415.249 232.121 417.334 233.064 419.338 234.164C421.922 235.643 424.587 237.389 419.133 239.108C425.915 242.93 426.71 251.385 421.603 256.137C419.606 257.997 418.125 257.089 416.445 256.631C400.209 252.208 383.986 247.738 367.775 243.221C360.78 241.272 360.483 242.206 357.732 248.864C355.008 255.457 350.751 261.52 346.556 267.379C338.577 278.524 331.413 290.053 326.705 302.997C325.809 305.465 324.61 308.553 321.63 308.134C319.256 307.799 315.805 306.935 316.293 302.886C316.334 302.353 316.172 301.824 315.839 301.405C308.37 292.928 312.027 284.347 315.717 275.889C321.239 263.236 328.17 251.295 334.937 239.294C337.056 235.531 336.937 234.26 332.536 232.931C319.26 228.924 305.907 225.168 292.652 221.08C283.151 218.152 279.668 210.089 274.88 203.208C273.545 201.288 274.89 196.73 276.211 193.955C277.525 191.193 280.922 192.219 283.446 192.721C305.497 197.115 327.572 201.451 349.026 208.322C352.264 209.36 353.686 208.949 355.57 205.756C362.857 193.403 370.64 181.342 378.352 169.244C380.028 166.614 381.72 163.74 385.199 163.047C387.845 162.519 390.492 162.266 392.32 164.929C394.553 168.182 390.067 168.147 389.599 170.583Z" fill="#4C5C69"/>
<path d="M102.031 133.148C102.318 130.475 98.3598 128.354 101.568 126.062C105.488 123.261 109.113 125.368 112.091 127.794C117.122 131.89 121.845 136.376 126.574 140.833C132.585 146.502 138.44 152.338 144.43 158.031C149.15 162.518 149.154 162.44 152.966 156.839C161.107 144.875 170.152 133.662 180.794 123.807C185.45 119.494 190.398 115.549 195.926 112.388C199.117 110.511 202.587 109.15 206.204 108.357C216.295 106.262 222.212 111.109 223.515 121.318C224.155 126.327 224.191 130.79 222.077 135.422C220.563 138.74 218.161 139.516 215.278 138.387C211.377 136.862 208.547 138.357 205.593 140.559C194.762 148.633 186.36 159.05 177.714 169.237C175.788 171.505 174.154 174.045 172.075 176.153C169.018 179.251 170.052 181.469 172.917 183.918C179.988 189.962 186.681 196.473 194.863 201.098C195.729 201.588 196.853 201.993 196.616 203.381C195.495 205.023 193.655 203.333 192.343 204.032C192.483 205.839 194.011 205.916 194.828 206.717C196.087 207.952 201.109 208.206 196.088 211.214C197.901 213.678 197.512 215.905 195.762 218.332C194.14 220.583 192.517 222.1 189.65 220.689C178.702 215.304 169.079 207.873 159.39 200.612C156.49 198.438 155.309 198.973 153.762 201.588C148.561 210.381 142.952 219.014 144.663 230.034C144.979 232.07 143.422 233.637 142.796 235.443C141.845 238.186 139.414 237.524 137.438 237.736C135.404 237.956 135.04 236.2 134.268 234.803C126.14 220.098 127.861 205.465 134.153 190.68C137.41 183.008 136.955 183.163 130.123 177.765C123.392 172.447 117.169 166.483 110.656 160.878C105.1 156.096 102.023 149.967 100.62 142.9C100.28 141.186 100.225 139.304 98.8555 138.092C97.2151 136.641 97.1969 135.059 98.0521 133.358C99.0455 131.383 100.754 133.166 102.031 133.148Z" fill="#4C5C69"/>
<path d="M164.297 427.396C162.096 427.248 160.1 426.423 158.17 425.45C156.688 424.704 155.328 423.711 153.578 423.615C153.243 423.597 152.717 423.551 152.699 422.983C152.686 422.607 152.416 422.454 152.18 422.603C151.399 423.094 151.096 422.664 150.802 422.027C150.591 421.57 150.338 421.415 150.237 422.101C149.855 421.98 149.479 421.839 149.112 421.677C143.318 418.762 137.58 415.742 132.168 412.154C129.313 410.261 126.078 409.13 123.086 407.502C117.566 404.501 112.761 400.637 108.175 396.388C105.402 393.819 102.859 390.999 100.051 388.521C94.2926 383.441 88.8056 378.069 83.0519 372.993C79.4168 369.786 75.9427 366.425 72.4758 363.049C69.3091 359.966 66.7421 356.43 64.3271 352.73C60.4442 346.778 56.3548 340.96 52.2502 335.155C45.0605 325.094 39.0382 314.248 34.2992 302.826C31.2986 295.705 29.1379 288.259 27.8607 280.639C27.0124 275.272 26.7986 269.889 28.0849 264.555C30.0005 256.617 35.3712 252.01 43.5974 251.09C49.8922 250.387 55.8758 251.794 61.7627 253.749C72.4454 257.298 81.4336 263.564 89.5237 271.253C95.0559 276.511 100.295 282.054 105.581 287.553C107.697 289.755 110.362 291.215 112.854 292.92C117.423 296.044 122.088 299.009 126.784 301.928C128.676 303.175 130.724 304.166 132.875 304.877C134.049 305.231 134.958 306.207 136.325 306.165C136.991 306.144 137.235 306.834 137.41 307.494C137.6 308.211 137.985 308.982 138.906 308.147C139.318 307.706 139.885 307.442 140.488 307.409C141.091 307.376 141.683 307.578 142.141 307.972C142.669 308.355 143.117 308.63 143.763 308.404C143.845 308.375 143.995 308.351 144.027 308.391C144.871 309.493 146.108 308.949 147.151 309.204C149.605 309.798 152.088 310.265 154.53 310.898C156.164 311.321 157.848 311.515 159.491 311.862C160.282 312.08 161.092 312.22 161.91 312.279C162.837 312.283 163.741 312.428 164.656 312.465C166.788 312.553 168.793 313.337 170.931 313.484C173.518 313.661 176.072 313.356 178.642 313.342C185.494 313.302 192.358 312.92 199.181 313.812C205.17 314.595 210.26 317.325 214.709 321.356C216.978 323.412 219.748 324.717 222.337 326.299C224.961 327.825 227.748 329.053 230.645 329.961C232.401 330.556 234.32 330.232 236.183 330.144C241.567 329.892 247.01 329.103 252.328 330.199C256.815 331.123 261.365 331.876 265.711 333.51C270.229 335.204 274.53 337.259 278.314 340.237C284.337 344.975 289.248 350.572 292.224 357.815C295.431 365.313 296.06 373.662 294.013 381.556C292.306 388.933 288.124 394.805 282.961 400.132C280.511 402.781 277.75 405.125 274.738 407.113C273.507 407.886 272.101 408.555 270.969 409.358C267.918 411.524 264.467 412.611 261.044 413.746C257.427 414.947 253.707 415.833 249.999 416.756C247.262 417.436 244.426 417.535 241.741 418.465C240.779 418.798 239.654 418.667 238.603 418.732C237.375 418.808 236.311 419.466 235.087 419.635C230.833 420.217 226.604 420.976 222.352 421.573C214.897 422.621 207.653 424.624 200.332 426.281C197.151 427.002 193.977 427.739 190.799 428.463C188.999 428.871 187.149 429.042 185.333 429.281C184.271 429.42 183.033 429.25 181.914 429.277C180.322 429.317 178.704 428.693 177.11 429.417C176.695 429.603 176.243 429.69 175.788 429.671C175.334 429.651 174.89 429.526 174.493 429.305C173.43 428.763 172.148 429.251 171.072 428.673L164.297 427.396ZM114.711 303.905C114.041 302.93 113.443 301.903 112.137 301.602C111.74 301.51 111.574 301.016 111.464 300.626C111.379 300.322 111.202 300.052 110.958 299.854C110.713 299.655 110.413 299.537 110.098 299.516C109.272 299.527 109.017 298.979 108.596 298.556C108.366 298.224 108.098 297.919 107.798 297.647C105.18 295.942 103.144 293.541 100.672 291.661C99.6607 290.89 99.0511 289.652 97.6818 289.262C97.2437 289.138 96.5008 289.373 96.3788 288.82C96.2591 288.277 97.3131 288.584 97.3519 287.843C96.6109 287.967 95.851 287.91 95.1369 287.676C94.4227 287.443 93.7756 287.041 93.2506 286.503C92.3728 285.55 90.5901 285.118 91.206 283.142C90.8444 284.311 90.3538 284.494 89.4708 283.921C88.4396 283.251 87.5468 282.396 86.5444 281.716C85.7463 281.174 84.6859 280.898 84.1413 280.092C83.3829 278.969 81.5195 279.265 81.1937 277.633C81.1461 277.402 80.596 277.287 80.3875 277.832C80.3434 278.028 80.3389 278.231 80.3742 278.429C80.4095 278.626 80.484 278.815 80.5933 278.984C80.7025 279.152 80.8444 279.297 81.0105 279.41C81.1765 279.523 81.3635 279.602 81.5604 279.642C82.6419 279.761 83.031 281.053 84.1321 281.107C83.7293 282.417 84.8486 282.164 85.4757 282.427C85.6196 282.488 85.8276 282.501 85.8196 282.764C85.7926 283.648 86.6324 284.206 86.5403 285.331C87.0781 284.814 87.0618 283.874 87.6062 284.166C88.311 284.543 87.307 285.168 87.5637 285.837C88.261 285.379 88.812 285.589 89.2692 286.249C90.6791 288.294 92.967 289.184 94.9633 290.422C96.1054 291.148 97.1871 291.965 98.1978 292.865C99.9545 294.396 101.929 295.636 103.777 296.994C105.962 298.6 108.255 300.134 110.567 301.59C111.886 302.422 113.005 303.705 114.708 303.867C116.106 305.322 117.04 305.57 117.942 304.694C116.825 304.556 115.94 303.547 114.711 303.905ZM74.4694 352.512C75.388 354.15 76.5172 355.661 77.8282 357.007C87.5162 367.79 98.7797 376.876 109.531 386.514C108.958 385.593 75.8199 353.591 74.4701 352.511L74.4694 352.512ZM192.398 420.595C183.895 420.471 175.395 420.051 166.892 420.456C175.371 423.098 183.877 422.786 192.398 420.595L192.398 420.595ZM33.7429 263.097C33.1687 263.392 32.7253 263.89 32.4995 264.495C31.2256 267.059 31.1634 269.828 31.1474 272.604C31.1401 273.892 31.2292 273.999 32.6842 274.485C30.9434 271.615 31.2285 269.246 33.3853 268.789C33.1961 268.088 32.591 266.882 33.1178 266.753C34.493 266.418 33.6542 265.669 33.6146 265.162C33.5657 264.542 33.3258 263.938 33.7429 263.097ZM126.275 320.337C123.215 318.203 120.02 316.269 116.711 314.545C119.51 317.125 122.482 319.41 126.275 320.337ZM51.6965 252.785C56.1429 253.891 60.5538 255.124 64.8986 256.589C60.7398 254.597 56.278 253.311 51.6965 252.785ZM94.2465 357.871C92.4917 355.322 89.732 354.078 87.2677 352.441C89.1836 354.772 91.7599 356.25 94.2465 357.871ZM31.4914 274.767C31.0648 277.573 31.5823 278.327 34.035 277.934C32.2384 277.417 33.1926 275.209 31.4924 274.768L31.4914 274.767ZM167.015 422.815L167.099 422.446L158.991 419.898L158.892 420.215C161.463 421.517 164.265 422.089 167.016 422.816L167.015 422.815ZM104.375 367.529C102.771 365.962 101.548 363.938 99.222 363.235C101.092 364.484 102.478 366.313 104.375 367.529ZM89.2028 317.005C90.4097 318.232 91.5102 319.577 93.4003 319.987C92.0425 318.799 90.8771 317.537 89.2028 317.005ZM106.42 331.839C107.321 332.633 108.218 333.517 109.945 333.434C108.956 332.562 107.728 332.006 106.419 331.839L106.42 331.839ZM93.0887 318.392C94.3102 318.931 94.8087 320.439 96.5168 320.813C95.5865 319.741 94.4098 318.91 93.088 318.393L93.0887 318.392ZM79.6938 278.004C79.9378 277.338 79.3 276.972 79.7659 276.517C79.8915 276.398 78.3582 276.181 78.3668 276.488C78.3883 277.253 79.2879 277.272 79.6938 278.004ZM167.193 419.485C166.739 418.874 166.374 418.361 165.687 418.503C165.465 418.549 165.356 418.961 165.511 419.207C165.896 419.82 166.462 419.702 167.193 419.484L167.193 419.485Z" fill="#4C5C69"/>
</svg>
