<svg width="50" height="50" viewBox="0 0 50 50" fill="none" xmlns="http://www.w3.org/2000/svg">
<path d="M45.0417 23.1417L26.8521 4.95628C26.3477 4.45415 25.6649 4.17224 24.9531 4.17224C24.2414 4.17224 23.5586 4.45415 23.0542 4.95628L19.2854 8.7292L24.075 13.5209C24.6401 13.3299 25.2474 13.3012 25.828 13.4378C26.4087 13.5745 26.9394 13.8712 27.3599 14.2941C27.7805 14.7171 28.0742 15.2495 28.2076 15.8308C28.3409 16.4122 28.3087 17.0194 28.1146 17.5834L32.7271 22.2021C33.41 21.9625 34.1541 21.9624 34.8371 22.2018C35.52 22.4413 36.1012 22.906 36.4849 23.5196C36.8687 24.1332 37.0322 24.8591 36.9486 25.578C36.8651 26.2968 36.5393 26.9659 36.025 27.475C34.7771 28.725 32.7625 28.725 31.5125 27.475C31.0685 27.0305 30.7652 26.4652 30.6403 25.8495C30.5155 25.2337 30.5746 24.5949 30.8104 24.0125L26.4896 19.7146V31.0417C26.7938 31.1896 27.0854 31.3938 27.3375 31.6459C27.9332 32.2457 28.2675 33.0568 28.2675 33.9021C28.2675 34.7475 27.9332 35.5585 27.3375 36.1584C27.0403 36.4561 26.6873 36.6922 26.2987 36.8534C25.9101 37.0145 25.4936 37.0975 25.0729 37.0975C24.6523 37.0975 24.2357 37.0145 23.8471 36.8534C23.4586 36.6922 23.1056 36.4561 22.8084 36.1584C22.5118 35.8627 22.2765 35.5113 22.1159 35.1245C21.9554 34.7377 21.8728 34.323 21.8728 33.9042C21.8728 33.4854 21.9554 33.0707 22.1159 32.6839C22.2765 32.2971 22.5118 31.9458 22.8084 31.65C23.125 31.3375 23.4792 31.1 23.8584 30.9438V19.5063C23.4688 19.3468 23.1148 19.1117 22.8166 18.8146C22.5185 18.5175 22.2822 18.1642 22.1214 17.7752C21.9606 17.3862 21.8785 16.9692 21.8799 16.5483C21.8812 16.1274 21.9659 15.7109 22.1292 15.323L17.4209 10.5917L4.94794 23.0542C3.90627 24.1042 3.90627 25.8042 4.94794 26.8542L23.1375 45.0396C23.3864 45.2891 23.682 45.4871 24.0075 45.6222C24.333 45.7572 24.682 45.8267 25.0344 45.8267C25.3868 45.8267 25.7358 45.7572 26.0613 45.6222C26.3867 45.4871 26.6824 45.2891 26.9313 45.0396L45.0354 26.9375C45.2862 26.6893 45.4853 26.394 45.6214 26.0684C45.7575 25.7429 45.8279 25.3937 45.8285 25.0409C45.8291 24.6881 45.7598 24.3387 45.6248 24.0127C45.4898 23.6868 45.2916 23.3907 45.0417 23.1417Z" fill="#EE570E"/>
</svg>
