<svg width="35" height="35" viewBox="0 0 35 35" fill="none" xmlns="http://www.w3.org/2000/svg">
<path d="M24.7173 20.5932L27.8119 17.5C29.1764 16.1311 29.9427 14.277 29.9427 12.3441C29.9427 10.4112 29.1764 8.55712 27.8119 7.18816C26.4433 5.82288 24.589 5.05615 22.6559 5.05615C20.7228 5.05615 18.8686 5.82288 17.5 7.18816L16.4689 8.2192L18.531 10.2813L19.5621 9.25024C20.3839 8.43211 21.4963 7.97279 22.6559 7.97279C23.8155 7.97279 24.928 8.43211 25.7498 9.25024C26.5686 10.0717 27.0284 11.1842 27.0284 12.3441C27.0284 13.504 26.5686 14.6165 25.7498 15.438L22.6552 18.5311C22.3008 18.8831 21.8833 19.1651 21.4243 19.3623L19.5621 17.5L21.6241 15.438L20.5931 14.4069C19.9178 13.7275 19.1145 13.1888 18.2296 12.8221C17.3447 12.4554 16.3958 12.2679 15.4379 12.2705C15.0952 12.2705 14.7612 12.3171 14.4302 12.3667L5.40602 3.34399L3.34393 5.40608L29.5939 31.6561L31.656 29.594L23.5827 21.5207C23.9866 21.2523 24.3673 20.9432 24.7173 20.5932ZM15.4379 25.7498C14.6161 26.568 13.5037 27.0273 12.344 27.0273C11.1844 27.0273 10.072 26.568 9.25018 25.7498C8.43133 24.9284 7.97153 23.8158 7.97153 22.656C7.97153 21.4961 8.43133 20.3836 9.25018 19.5621L11.4027 17.4111L9.3406 15.349L7.1881 17.5C5.82353 18.869 5.05729 20.7231 5.05729 22.656C5.05729 24.5889 5.82353 26.443 7.1881 27.8119C7.86458 28.4894 8.66826 29.0265 9.55296 29.3924C10.4377 29.7582 11.3859 29.9457 12.3433 29.944C13.3009 29.946 14.2495 29.7587 15.1345 29.3927C16.0195 29.0268 16.8234 28.4896 17.5 27.8119L18.531 26.7809L16.4689 24.7188L15.4379 25.7498Z" fill="#21648A"/>
</svg>
