<svg width="108" height="18" viewBox="0 0 108 18" fill="none" xmlns="http://www.w3.org/2000/svg">
<path d="M83.6856 0.755408C84.9647 1.63477 86.1612 2.57536 87.4664 3.32236C88.8502 4.11591 90.316 4.75395 91.8376 5.22511C93.1042 5.61679 94.3315 6.12518 95.6865 6.10209C96.6543 6.72295 97.7692 6.50515 98.8197 6.63193C99.2493 6.68324 99.7077 6.46123 100.145 6.48928C100.616 6.5193 101.056 6.3184 101.474 6.32447C103.022 6.34734 104.475 5.74233 106.006 5.71082C106.118 5.70856 106.228 5.57427 106.383 5.47292L107.609 6.44462L106.33 7.24569L107.754 7.36324L107.288 8.24933L107.548 8.76422C107.304 9.26523 107.131 9.97104 106.699 10.4236C106.097 11.0544 105.327 11.5365 104.577 11.9957C104.223 12.1927 103.818 12.2729 103.417 12.225C102.581 12.1205 101.785 12.6077 100.943 12.3478C100.82 12.3096 100.632 12.4821 100.451 12.5684C100.408 12.4039 100.364 12.2324 100.318 12.0571L94.9944 11.6174C95.4966 11.9506 96.058 11.911 96.6001 11.9695C97.2151 12.0352 97.8331 12.0713 98.4495 12.127C98.9967 12.1769 99.543 12.2376 100.066 12.549C98.9925 12.4603 97.9181 12.3773 96.8449 12.2816C95.5695 12.1675 94.2562 12.208 93.1429 11.4003C91.8595 11.3142 90.7443 10.7214 89.572 10.2699C89.019 10.0633 88.5313 9.71015 88.1599 9.24741C88.0875 9.30964 88.0154 9.37221 87.8818 9.48842C87.0695 8.95448 86.281 8.31472 85.3911 7.89306C84.7766 7.60176 84.5851 6.8809 83.919 6.6996C83.6741 6.63285 83.4669 6.42883 83.1146 6.20682C82.7123 6.03575 82.0078 6.43194 81.562 5.80956C81.4895 5.87162 81.4167 5.93382 81.3007 6.03344L80.9509 5.79106L80.7051 6.28606L80.2334 6.2471L80.5302 5.83323C80.4537 5.78925 80.3557 5.69 80.304 5.71042C79.9335 5.85691 79.5702 6.02299 79.2089 6.19241C78.8851 6.34418 78.567 6.5083 78.1716 6.70402L77.779 6.39828L77.4787 6.91757L77.2788 6.69771C76.9665 6.91263 76.6603 7.29723 76.3374 7.31251C75.4537 7.35395 74.7668 7.91412 73.9423 8.09924C73.5244 8.19307 73.1432 8.52385 72.7821 8.7971C71.606 9.70897 70.2855 10.4123 68.877 10.877L68.5645 10.5301L67.9732 11.0418L66.7526 10.941C66.5517 11.2202 66.3677 11.4759 66.1617 11.7626L65.6627 11.7214C65.4826 11.9162 65.3439 12.2055 65.1456 12.2565C64.226 12.493 63.3558 13.0644 62.3234 12.3748C61.8833 12.0808 61.1502 12.2349 60.5274 12.4214L62.2296 12.6682L62.2082 12.8348L60.2978 12.6771C60.2524 12.5014 60.208 12.3299 60.1333 12.0406C59.4114 12.6341 58.7464 12.3269 58.1049 11.9785C57.2029 11.4885 56.3319 10.9874 55.5654 10.246C54.5744 9.28737 53.514 8.36625 52.2624 7.73003C52.116 7.63209 51.9779 7.52185 51.8498 7.40049L50.1838 7.2629C50.1364 7.17384 50.0934 7.12741 50.103 7.10462C50.1205 7.06507 50.1742 7.0434 50.206 7.00803C50.2599 6.94792 50.3085 6.88277 50.4031 6.76557L49.3847 6.68146C49.3327 6.46826 49.2912 6.29819 49.2393 6.08611L48.6627 5.94069L48.961 6.45687L48.6341 6.76555L49.5097 7.0178C47.6212 7.1657 45.7761 7.76759 43.9096 7.2944C43.4854 8.24532 42.7439 8.42907 41.8209 8.3185C40.5186 9.34488 39.215 10.4254 37.8558 11.4288C36.4392 12.4742 34.8576 13.3053 33.1382 13.5603C31.6896 13.7749 30.1412 14.1943 28.7076 13.3303C28.5716 13.2845 28.4271 13.2703 28.2849 13.2887C26.8354 13.2404 25.6427 12.4981 24.4496 11.796C23.9506 11.5016 23.5869 10.9782 23.0944 10.6676C22.4189 10.2413 21.6564 10.0012 20.894 9.73761C19.5305 9.26639 18.1343 9.31774 16.7524 9.15425C15.4825 9.01453 14.1977 9.1005 12.9562 9.40826C12.8151 9.43937 12.6681 9.42562 12.5352 9.3689C12.4101 9.2804 12.2995 9.17247 12.2077 9.04908C12.1371 9.21527 12.0695 9.37412 11.9522 9.64946L11.2828 9.32656C11.2494 9.42114 11.2051 9.5474 11.1296 9.7621C9.9483 10.001 8.912 11.0427 7.52018 10.6985L7.06376 11.0896L7.33895 11.4566C6.62048 11.9111 5.81876 12.2689 5.21533 12.8407C4.57421 13.4483 3.97598 14.0728 3.07121 14.5944C2.98605 14.7444 2.81069 15.0524 2.6027 15.4181L1.85697 15.7725C1.70541 16.6338 1.70541 16.6338 1.23419 17.1189L0.103071 15.7687L0.310766 13.2537C0.376538 13.2153 0.802056 13.1017 0.832114 12.9215C0.954356 12.1861 1.72752 12.0244 1.98566 11.4342C2.25991 10.808 2.84278 10.4681 3.31122 10.0204C3.95114 9.40842 4.58152 8.78693 5.18849 8.14372C6.5569 6.69439 9.25646 5.29865 11.64 4.94759C12.2031 4.86463 12.7439 4.63598 13.3043 4.52242C13.8333 4.41529 14.3719 4.80699 14.9401 4.39227C15.175 4.2208 15.6749 4.42129 15.7268 4.42558L16.5785 4.95962C16.3704 5.20562 16.2557 5.3419 16.0909 5.53656L17.8301 5.68019L16.9577 5.28878C17.8061 4.52688 18.605 3.96107 19.7156 4.69944C19.8407 4.75813 19.9774 4.78738 20.1154 4.785C21.8736 4.95535 23.3575 5.68878 24.7189 6.82784C25.2702 7.28927 26.017 7.68709 26.8065 7.64182C27.581 7.59721 28.219 8.02577 28.9422 8.12221C31.1392 8.41522 33.1241 7.74526 34.989 6.66089C35.9861 6.09455 36.9402 5.45374 37.8432 4.7438C39.3918 3.49927 41.1832 2.81982 43.0515 2.35785C44.3946 2.02564 45.8036 1.98263 47.1675 1.76213C48.5961 1.53194 49.9583 1.89068 51.3483 1.84515C52.2499 1.81563 52.9202 2.28357 53.5561 2.75959C54.96 3.81037 56.2802 4.97466 57.6735 6.0407C58.315 6.53127 59.1252 6.7221 59.8981 6.89955C61.3128 7.22449 62.7225 6.95064 64.0884 6.5874C65.191 6.2942 66.2526 5.83857 67.3263 5.4379C69.1277 4.76546 70.7987 3.82728 72.501 2.93586C74.2154 2.03815 76.0366 1.28884 78.0294 1.15098C78.6381 1.10882 79.2397 0.898321 79.8352 0.73243C81.1373 0.370247 82.424 0.725289 83.6856 0.755408Z" fill="#1C984D"/>
</svg>
