<svg width="50" height="50" viewBox="0 0 50 50" fill="none" xmlns="http://www.w3.org/2000/svg">
<path d="M38.5417 19.8125C36.9793 19.2744 35.6002 18.3069 34.5625 17.0209C33.4189 15.588 31.9626 14.4357 30.3052 13.6522C28.6478 12.8686 26.8331 12.4745 25 12.5C22.5341 12.3254 20.0929 13.086 18.1625 14.6303C16.2322 16.1746 14.9543 18.3893 14.5834 20.8334C15.3139 19.611 16.4135 18.6519 17.7238 18.094C19.034 17.5362 20.4875 17.4085 21.875 17.7292C23.4348 18.283 24.8117 19.2562 25.8542 20.5417C27.0041 21.9631 28.4631 23.1035 30.1202 23.8761C31.7772 24.6486 33.5887 25.033 35.4167 25C37.8826 25.1747 40.3238 24.4141 42.2542 22.8698C44.1845 21.3255 45.4624 19.1108 45.8334 16.6667C45.1161 17.9037 44.02 18.8773 42.707 19.4438C41.3941 20.0103 39.9338 20.1395 38.5417 19.8125ZM11.4584 30.1875C13.0207 30.7257 14.3998 31.6932 15.4375 32.9792C16.5812 34.4121 18.0374 35.5643 19.6948 36.3479C21.3522 37.1315 23.1669 37.5256 25 37.5C27.4659 37.6747 29.9071 36.9141 31.8375 35.3698C33.7679 33.8255 35.0458 31.6108 35.4167 29.1667C34.6861 30.3891 33.5866 31.3482 32.2763 31.906C30.966 32.4639 29.5125 32.5916 28.125 32.2709C26.5652 31.7171 25.1884 30.7439 24.1459 29.4584C22.9929 28.0405 21.5333 26.9026 19.8769 26.1304C18.2206 25.3581 16.4106 24.9717 14.5834 25C12.1175 24.8254 9.67624 25.586 7.74587 27.1303C5.8155 28.6746 4.53761 30.8893 4.16669 33.3334C4.88399 32.0964 5.98004 31.1227 7.29301 30.5563C8.60598 29.9898 10.0663 29.8606 11.4584 30.1875Z" fill="#0EB1EE"/>
</svg>
